<?xml version="1.0" encoding="UTF-8"?>
<!-- Generator: Adobe Illustrator 30.3.0, SVG Export Plug-In . SVG Version: 9.03 Build 0)  -->
<svg version="1.1" id="Layer_1"
	 xmlns="http://www.w3.org/2000/svg" xmlns:xlink="http://www.w3.org/1999/xlink"
	 x="0px" y="0px" viewBox="0 0 86.261 86.26" enable-background="new 0 0 86.261 86.26" xml:space="preserve">
<path id="Horizontal_Mukilteo_Black" fill="#FFFFFF" d="M58.997,71.552v-5.247l2.599,2.985l-2.599-6.71v-0.135l5.989,4.087
	l-5.562-8.12l8.545,4.926l-6.766-7.416l9.287,3.846l-9.144-7.26l11.155,3.38l-11.266-6.323l12.73,2.205l-12.022-4.73l12.911,0.451
	l-12.554-3.049l12.853-1.311l-12.853-1.31l12.554-3.049l-12.911,0.451l12.022-4.73l-12.73,2.205L72.5,30.374l-12.311,3.918
	l10.301-7.799l-11.663,5.558l9.143-9.128l-10.798,7.094l7.815-10.288l-9.731,8.499l6.341-11.257l-8.483,9.745L57.862,14.7
	l-7.077,10.808l3.069-12.55l-5.539,11.671l1.331-12.851l-3.899,12.318l-0.431-12.912l-2.082,12.13
	c-0.033-0.445-0.067-0.81-0.098-0.924v-0.039c0,0-0.004,0.015-0.006,0.02l-0.004-0.017l-0.002,0.036
	c-0.031,0.113-0.065,0.478-0.098,0.923l-2.082-12.13l-0.431,12.912L36.616,11.78l1.331,12.851l-5.54-11.671l3.069,12.55L28.399,14.7
	l4.749,12.015l-8.483-9.745l6.341,11.257l-9.731-8.499l7.815,10.288l-10.798-7.094l9.143,9.128l-11.663-5.558l10.3,7.799
	l-12.311-3.918l11.266,6.323l-12.73-2.205l12.022,4.73L11.409,38.77l12.554,3.049l-12.853,1.31l12.853,1.311L11.409,47.49
	l12.938-0.391l-12.049,4.67l12.405-1.895l-10.942,6.014l11.013-3.168l-9.002,7.047l9.429-3.846l-6.909,7.416l8.403-4.855
	l-5.42,8.049l5.847-3.993l-2.457,6.751l2.599-2.985v5.247c-9.954-5.58-16.706-16.22-16.706-28.421
	c0-17.961,14.612-32.573,32.573-32.573S75.703,25.17,75.703,43.131C75.703,55.331,68.951,65.972,58.997,71.552z M43.131,0
	C19.31,0,0,19.31,0,43.131C0,61.343,11.304,76.884,27.264,83.21v-8.934C15.929,68.489,8.152,56.73,8.152,43.131
	c0-19.318,15.661-34.979,34.979-34.979s34.979,15.66,34.979,34.979c0,13.6-7.778,25.359-19.112,31.146v8.933
	c15.961-6.326,27.264-21.867,27.264-40.079C86.261,19.31,66.951,0,43.131,0z M58.91,56.785l-0.281,0.304l-2.847,3.067v0.675v23.565
	c-3.98,1.211-8.202,1.864-12.578,1.864c-0.025,0-0.05,0-0.074,0c-0.025,0-0.049,0-0.074,0c-4.376,0-8.599-0.653-12.578-1.864V60.831
	v-0.675l-2.847-3.067l-0.285-0.308l2.571-0.727l4.423,4.767v-2.246l-2.487-3.069l3.136-0.889l3.438,5.52v-2.69l-1.35-3.029h4.89
	l0.381,3.656l0.013,0.029l0.746,1.796l0.008-0.017l0.007,0.015l0.758-1.795l0.013-0.029l0.381-3.656h4.89l-1.35,3.075v2.644
	l3.438-5.52l3.136,0.889l-2.487,3.069v2.246l4.423-4.767L58.91,56.785z M46.947,73.348h-3.81h-0.012h-3.81v5.112h3.81h0.012h3.81
	V73.348z M46.947,66.134h-3.81h-0.012h-3.81v5.035h3.81h0.012h3.81V66.134z M35.41,52.371h0.031h15.361h0.031l0.03,0.009
	l9.095,2.588v-8.522l-8.729-2.306l-0.929-0.245l-0.776,0.002l-4.177,0.014v-2.434c0,0-0.005-0.024-0.008-0.037
	c0.003-0.308-0.059-0.872-0.508-1.286c-0.299-0.276-0.788-0.369-1.116-0.398l-0.001-0.004h-0.578h-0.012h-0.578l-0.001,0.004
	c-0.327,0.03-0.816,0.122-1.115,0.398c-0.45,0.414-0.511,0.978-0.508,1.286c-0.003,0.012-0.008,0.024-0.008,0.024v2.447
	l-4.177-0.014v-7.491h6.387h0.006h0.001h0.006h6.387v0.001l1.704-0.001h0.012l1.482-1.376c0,0-6.581-2.205-7.76-3.145
	c-0.148-0.118-0.263-0.268-0.355-0.427c0.336-0.058,0.546-0.136,0.546-0.223c0-0.103-0.298-0.194-0.756-0.254
	c-0.069-0.21-0.113-0.409-0.147-0.559c0.361-0.074,0.594-0.184,0.594-0.307c0-0.141-0.301-0.266-0.759-0.339
	c-0.028-0.111-0.055-0.224-0.081-0.332c0.43-0.284,0.716-0.771,0.716-1.325c0-0.791-0.58-1.442-1.337-1.563v-0.627
	c0,0-0.07-1.555-0.148-2.613c-0.033-0.445-0.067-0.81-0.098-0.924v-0.039c0,0-0.004,0.015-0.006,0.02l-0.004-0.017l-0.002,0.036
	c-0.031,0.113-0.065,0.478-0.098,0.923c-0.078,1.059-0.147,2.614-0.147,2.614v0.627c-0.757,0.121-1.337,0.772-1.337,1.563
	c0,0.554,0.285,1.041,0.716,1.325c-0.026,0.108-0.054,0.221-0.082,0.332c-0.457,0.073-0.759,0.198-0.759,0.339
	c0,0.123,0.233,0.233,0.594,0.307c-0.034,0.15-0.078,0.348-0.147,0.559c-0.457,0.06-0.756,0.151-0.756,0.254
	c0,0.086,0.21,0.164,0.546,0.223c-0.092,0.159-0.207,0.309-0.355,0.427c-1.179,0.94-7.76,3.145-7.76,3.145l1.482,1.376h0.012v7.734
	l-8.729,2.306v8.517l9.076-2.582L35.41,52.371z"/>
<g>
</g>
<g>
</g>
<g>
</g>
<g>
</g>
<g>
</g>
<g>
</g>
</svg>
