<?xml version="1.0" encoding="UTF-8"?>
<!-- Generator: Adobe Illustrator 30.3.0, SVG Export Plug-In . SVG Version: 9.03 Build 0)  -->
<svg version="1.1" id="Layer_1"
	 xmlns="http://www.w3.org/2000/svg" xmlns:xlink="http://www.w3.org/1999/xlink"
	 x="0px" y="0px" viewBox="0 0 360 176.37" enable-background="new 0 0 360 176.37" xml:space="preserve">
<g id="Vertical_Mukilteo_Reversed_to_Color">
	<path id="White_1_" fill="#FFFFFF" d="M171.418,125.609c-34.686,0-62.804-28.118-62.804-62.804S136.732,0,171.418,0
		s62.804,28.118,62.804,62.804S206.103,125.609,171.418,125.609z M13.323,119.461l-2.08-2.102c-0.342,0.452-0.769,0.83-1.281,1.142
		c-0.512,0.312-1.121,0.468-1.824,0.468c-0.744,0-1.391-0.176-1.944-0.531c-0.553-0.355-1.009-0.837-1.371-1.441
		c-0.361-0.608-0.633-1.322-0.814-2.142c-0.181-0.823-0.271-1.693-0.271-2.61c0.001-0.936,0.091-1.813,0.272-2.636
		c0.181-0.82,0.452-1.534,0.814-2.142c0.362-0.604,0.814-1.086,1.356-1.441c0.543-0.355,1.175-0.531,1.899-0.531
		c1.306,0,2.371,0.511,3.195,1.531l2.079-2.182c-0.583-0.727-1.336-1.285-2.26-1.674c-0.925-0.388-2-0.584-3.225-0.584
		c-1.186,0-2.266,0.239-3.241,0.714c-0.975,0.475-1.804,1.142-2.486,1.999c-0.684,0.857-1.211,1.879-1.583,3.065
		s-0.557,2.48-0.558,3.882c0,1.401,0.185,2.69,0.557,3.868c0.372,1.175,0.894,2.195,1.568,3.051
		c0.672,0.857,1.497,1.527,2.471,2.012c0.975,0.481,2.064,0.724,3.271,0.724c1.326,0,2.426-0.222,3.3-0.674
		C12.041,120.779,12.76,120.188,13.323,119.461z M22.213,121.436l0.001-18.382h-3.617l-0.001,18.382H22.213z M38.159,105.701v-2.646
		H26.584v2.646h4.009l-0.001,15.736h3.556l0.001-15.736H38.159z M55.671,103.054h-3.828l-3.256,8.152l-0.09,0.053l-3.195-8.205
		h-3.918l5.334,11.346v7.036h3.557V114.4L55.671,103.054z M82.752,108.271c-0.352-1.175-0.859-2.188-1.522-3.035
		c-0.663-0.85-1.473-1.504-2.426-1.962c-0.955-0.458-2.025-0.687-3.21-0.687c-1.206,0-2.286,0.229-3.241,0.687
		c-0.955,0.458-1.763,1.112-2.426,1.962c-0.662,0.847-1.165,1.859-1.507,3.035c-0.342,1.179-0.512,2.494-0.513,3.948
		c0,1.454,0.175,2.773,0.527,3.958c0.351,1.185,0.859,2.205,1.522,3.051c0.663,0.85,1.466,1.507,2.411,1.972
		c0.944,0.468,2.019,0.701,3.225,0.701c1.185,0,2.255-0.232,3.21-0.701c0.954-0.465,1.763-1.122,2.426-1.972
		c0.662-0.847,1.17-1.866,1.522-3.051c0.351-1.185,0.528-2.504,0.528-3.958C83.28,110.764,83.103,109.449,82.752,108.271z
		 M79.3,114.855c-0.161,0.82-0.407,1.534-0.739,2.142c-0.331,0.604-0.744,1.082-1.236,1.428c-0.492,0.345-1.07,0.518-1.732,0.518
		c-0.663,0-1.241-0.173-1.733-0.518c-0.493-0.345-0.904-0.823-1.236-1.428c-0.331-0.608-0.578-1.322-0.738-2.142
		c-0.161-0.823-0.242-1.703-0.242-2.636c0.001-0.936,0.081-1.813,0.242-2.636c0.16-0.82,0.407-1.531,0.738-2.128
		c0.332-0.598,0.743-1.069,1.236-1.415c0.492-0.345,1.07-0.518,1.733-0.518c0.643,0,1.21,0.173,1.703,0.518
		c0.492,0.345,0.904,0.817,1.236,1.415c0.331,0.598,0.583,1.308,0.754,2.128c0.17,0.823,0.256,1.7,0.255,2.636
		C79.541,113.152,79.46,114.032,79.3,114.855z M97.265,105.857v-2.802H87.71l-0.001,18.382h3.648v-7.893h5.456l0.001-2.65h-5.486
		v-5.037H97.265z M11.346,142.588h0.17l8.166,33.371h5.529l8.081-33.371h0.17v23.662c0,3.144-0.681,5.06-2.807,5.469l-1.871,0.342
		v3.898h19.734v-3.898l-2.722-0.342c-2.127-0.342-2.807-2.324-2.807-5.469v-23.662c0-3.211,1.021-5.197,2.722-5.469l2.722-0.342
		v-3.898H29.804l-5.019,20.992l-5.274-20.992H0.458v3.898l2.722,0.342c1.701,0.272,2.722,2.258,2.722,5.469v23.662
		c0,3.144-0.681,5.127-2.722,5.469l-2.722,0.342v3.898h15.566v-3.898l-1.872-0.342c-2.126-0.408-2.807-2.324-2.807-5.469V142.588z
		 M57.965,136.777l2.722,0.342c1.701,0.272,2.722,2.258,2.722,5.469v16.207c0,11.967,3.487,17.575,16.927,17.575
		c8.761,0,13.525-3.486,13.525-16.343v-17.439c0-2.597,0.511-5.197,2.807-5.469l2.722-0.342v-3.898H82.973v3.898l2.636,0.342
		c2.382,0.272,2.892,2.872,2.892,5.469v18.601c0,8.617-3.147,10.805-7.571,10.805c-6.89,0-7.91-4.104-7.91-14.839v-14.567
		c0-3.211,1.02-5.197,2.722-5.469l2.722-0.342v-3.898h-20.5V136.777z M113.346,166.249c0,3.144-0.681,5.127-2.722,5.469
		l-2.722,0.342v3.898h20.584v-3.898l-2.722-0.342c-2.126-0.342-2.807-2.324-2.807-5.469v-3.42l3.657-3.828l6.55,8.683
		c0.765,1.026,1.276,2.052,1.276,2.736c0,0.754-0.511,1.298-1.19,1.438l-1.872,0.203v3.898h21.776v-3.898l-3.062-0.342
		c-2.211-0.272-4.423-2.597-6.55-5.469l-10.377-13.883l10.633-10.941c2.382-2.46,4.083-4.171,5.274-4.307l2.807-0.342v-3.898h-20.5
		v3.898l1.957,0.206c1.106,0.136,2.211,0.548,2.211,0.956c0,0.342-0.34,0.82-0.681,1.096l-10.718,11.143
		c-0.255,0.342-0.765,0.684-1.19,0.684v-8.275c0-3.211,1.02-5.197,2.722-5.469l2.722-0.342v-3.898h-20.5v3.898l2.722,0.342
		c1.701,0.272,2.722,2.258,2.722,5.469V166.249z M167.535,166.249c0,3.144-0.681,5.127-2.722,5.469l-2.722,0.342v3.898h20.584
		v-3.898l-2.722-0.342c-2.126-0.342-2.807-2.324-2.807-5.469v-23.662c0-3.211,1.02-5.197,2.722-5.469l2.722-0.342v-3.898h-20.5
		v3.898l2.722,0.342c1.701,0.272,2.722,2.258,2.722,5.469V166.249z M198.329,166.249c0,3.144-0.681,5.127-2.722,5.469l-2.722,0.342
		v3.898h35.896v-14.016h-5.359v3.759c0,3.284-2.127,4.855-8.08,4.855c-6.21,0-7.4-2.188-7.4-6.086v-21.882
		c0-3.211,1.02-5.197,2.722-5.469l2.722-0.342v-3.898h-20.5v3.898l2.722,0.342c1.701,0.272,2.722,2.258,2.722,5.469V166.249z
		 M233.973,150.042h5.019v-3.828c0-4.034,1.276-8.48,4.933-8.48c3.232,0,3.573,4.034,3.573,6.634v21.882
		c0,3.144-0.681,5.127-2.807,5.469l-2.722,0.342v3.898h20.585v-3.898l-2.637-0.342c-2.211-0.342-2.892-2.324-2.892-5.469v-21.882
		c0-2.6,0.34-6.634,3.573-6.634c3.658,0,4.933,4.446,4.933,8.48v3.828h5.019v-17.163h-36.577V150.042z M303.668,155.65v-4.855
		h-8.421v-8.889c0-3.148,1.276-4.788,5.614-4.788c3.998,0,7.4,2.666,7.4,7.796v2.872h5.358v-14.909h-33.429v3.898l2.722,0.342
		c1.701,0.272,2.722,2.258,2.722,5.469v23.662c0,3.144-0.681,5.197-2.722,5.469l-2.722,0.342v3.898h33.429v-15.453h-5.358v3.35
		c0,4.24-1.446,7.727-7.4,7.727c-4.338,0-5.614-1.982-5.614-4.718V155.65H303.668z M359.999,147.854
		c-0.085-8.547-6.975-15.453-17.608-15.453c-10.632,0-17.608,7.385-17.608,15.453l-0.085,13.063
		c-0.086,9.297,7.06,15.453,17.692,15.453c10.718,0,17.693-7.318,17.608-15.935V147.854z M336.353,144.437
		c0-3.832,0.936-7.591,6.039-7.591c5.019,0,6.039,3.759,6.039,7.591v18.186c0,4.652-1.02,9.37-6.039,9.37
		c-5.104,0-6.039-4.376-6.039-9.37V144.437z"/>
	<g id="Logomark_1_">
		<path id="Aqua_4_" fill="#4F9B99" d="M193.279,101.966v-7.23l3.581,4.113l-3.581-9.246v-0.186l8.252,5.631l-7.664-11.188
			l11.774,6.787l-9.323-10.219l12.796,5.299l-12.6-10.004l15.37,4.658l-15.524-8.713l17.54,3.038l-16.565-6.518l17.79,0.622
			l-17.298-4.201l17.709-1.807l-17.709-1.806l17.298-4.201l-17.79,0.622l16.565-6.518l-17.54,3.038l15.524-8.712l-16.963,5.399
			l14.193-10.746l-16.07,7.658l12.598-12.578l-14.878,9.775l10.768-14.176l-13.408,11.71l8.737-15.511l-11.689,13.427l6.544-16.555
			l-9.751,14.893l4.228-17.292l-7.633,16.082l1.834-17.707l-5.372,16.972l-0.594-17.792l-2.868,16.714
			c-0.045-0.614-0.092-1.117-0.135-1.273v-0.054c0,0-0.006,0.02-0.008,0.028l-0.006-0.023l-0.003,0.05
			c-0.043,0.156-0.09,0.659-0.135,1.272l-2.868-16.713l-0.594,17.792l-5.372-16.972l1.835,17.707l-7.633-16.082l4.228,17.292
			l-9.751-14.893l6.544,16.555L145.975,26.76l8.737,15.511l-13.408-11.71l10.768,14.176l-14.878-9.775l12.598,12.578l-16.07-7.658
			l14.193,10.746l-16.963-5.399l15.524,8.712l-17.54-3.038l16.565,6.518l-17.79-0.622l17.298,4.201l-17.709,1.806l17.709,1.807
			l-17.298,4.201l17.828-0.539l-16.603,6.435l17.093-2.611l-15.076,8.286l15.174-4.365l-12.404,9.711l12.992-5.299l-9.52,10.219
			l11.578-6.69l-7.468,11.091l8.056-5.502l-3.385,9.302l3.581-4.113v7.23c-13.716-7.688-23.019-22.35-23.019-39.161
			c0-24.748,20.134-44.881,44.881-44.881s44.881,20.133,44.881,44.881C216.299,79.616,206.995,94.277,193.279,101.966z"/>
		<path id="Deep_Navy_4_" fill="#003660" d="M230.846,62.805c0,25.094-15.575,46.508-37.567,55.224V105.72
			c15.618-7.974,26.335-24.177,26.335-42.915c0-26.618-21.578-48.196-48.196-48.196s-48.196,21.578-48.196,48.196
			c0,18.739,10.716,34.941,26.335,42.914v12.31c-21.992-8.716-37.567-30.131-37.567-55.224c0-32.823,26.607-59.429,59.429-59.429
			C204.239,3.376,230.846,29.982,230.846,62.805z M189.597,80.611l3.563,1.009l-0.387,0.417l-3.922,4.228v0.929v32.469
			c-5.483,1.67-11.302,2.57-17.331,2.57c-0.034,0-0.068-0.001-0.102-0.001c-0.034,0-0.068,0.001-0.102,0.001
			c-6.029,0-11.848-0.9-17.331-2.57V87.194v-0.929l-3.922-4.228l-0.392-0.423l3.543-1.003l6.095,6.569v-3.095l-3.427-4.23
			l4.321-1.224l4.738,7.607V82.53l-1.861-4.174h6.738l0.524,5.038l0.017,0.041l1.028,2.476l0.011-0.024l0.009,0.022l1.044-2.474
			l0.017-0.041l0.524-5.038h6.738l-1.861,4.239v3.643l4.738-7.607l4.321,1.224l-3.427,4.23v3.095L189.597,80.611z M176.676,104.441
			h-5.25h-0.016h-5.25v7.042h5.25h0.016h5.25V104.441z M176.676,94.5h-5.25h-0.016h-5.25v6.939h5.25h0.016h5.25V94.5z
			 M160.78,75.536h0.042h21.165h0.042l0.041,0.012l12.531,3.565V67.371l-12.028-3.177l-1.28-0.338l-1.069,0.003l-5.756,0.019v-3.354
			c0,0-0.007-0.034-0.01-0.051c0.004-0.425-0.081-1.202-0.7-1.772c-0.413-0.38-1.086-0.508-1.537-0.549l-0.001-0.005h-0.796h-0.016
			h-0.796l-0.001,0.005c-0.451,0.041-1.124,0.168-1.537,0.549c-0.62,0.571-0.704,1.348-0.7,1.772
			c-0.003,0.017-0.01,0.033-0.01,0.033v3.371l-5.756-0.019V53.538h8.801h0.008h0.001h0.008h8.801v0.001l2.348-0.001h0.016
			l2.042-1.896c0,0-9.068-3.038-10.693-4.333c-0.204-0.163-0.362-0.369-0.49-0.588c0.463-0.081,0.753-0.188,0.753-0.307
			c0-0.142-0.411-0.268-1.041-0.35c-0.095-0.29-0.156-0.564-0.203-0.77c0.497-0.103,0.818-0.253,0.818-0.423
			c0-0.194-0.415-0.366-1.046-0.467c-0.038-0.153-0.076-0.308-0.112-0.458c0.593-0.392,0.986-1.062,0.986-1.826
			c0-1.09-0.8-1.987-1.843-2.153v-0.864c0,0-0.096-2.142-0.203-3.601c-0.045-0.614-0.092-1.117-0.135-1.273v-0.054
			c0,0-0.006,0.021-0.008,0.028l-0.006-0.023l-0.003,0.05c-0.043,0.156-0.09,0.659-0.135,1.272
			c-0.107,1.459-0.203,3.602-0.203,3.602v0.864c-1.043,0.167-1.843,1.063-1.843,2.153c0,0.764,0.393,1.435,0.986,1.826
			c-0.036,0.149-0.074,0.305-0.112,0.458c-0.63,0.101-1.046,0.272-1.046,0.467c0,0.17,0.321,0.321,0.818,0.423
			c-0.047,0.206-0.108,0.48-0.203,0.77c-0.63,0.083-1.041,0.208-1.041,0.35c0,0.119,0.29,0.226,0.753,0.307
			c-0.127,0.22-0.285,0.426-0.49,0.588c-1.624,1.295-10.693,4.333-10.693,4.333l2.042,1.896h0.016v10.657l-12.028,3.177v11.735
			l12.506-3.558L160.78,75.536z"/>
	</g>
</g>
<g>
</g>
<g>
</g>
<g>
</g>
<g>
</g>
<g>
</g>
<g>
</g>
</svg>
