<?xml version="1.0" encoding="UTF-8"?>
<!-- Generator: Adobe Illustrator 30.3.0, SVG Export Plug-In . SVG Version: 9.03 Build 0)  -->
<svg version="1.1" id="Layer_1"
	 xmlns="http://www.w3.org/2000/svg" xmlns:xlink="http://www.w3.org/1999/xlink"
	 x="0px" y="0px" viewBox="0 0 360 90.727" enable-background="new 0 0 360 90.727" xml:space="preserve">
<g id="Horizontal_Mukilteo_Reversed_to_Color">
	<path id="White" fill="#FFFFFF" d="M45.363,90.727C20.31,90.727,0,70.417,0,45.363S20.31,0,45.363,0s45.363,20.31,45.363,45.363
		S70.417,90.727,45.363,90.727z M131.97,66.855l1.975,0.248v2.83h-14.322v-2.83l1.358-0.248c1.543-0.297,2.037-1.687,2.037-3.969
		V45.714h-0.123l-5.865,24.219h-4.012l-5.926-24.219h-0.124v17.172c0,2.282,0.494,3.672,2.037,3.969l1.359,0.248v2.83H99.067v-2.83
		l1.975-0.248c1.481-0.248,1.975-1.687,1.975-3.969V45.714c0-2.33-0.741-3.772-1.975-3.969l-1.975-0.248v-2.83h13.828l3.827,15.235
		l3.642-15.235h13.519v2.83l-1.975,0.248c-1.234,0.197-1.975,1.639-1.975,3.969v17.172C129.932,65.168,130.426,66.607,131.97,66.855
		z M158.951,41.497l1.913,0.248c1.728,0.197,2.099,2.085,2.099,3.969v13.5c0,6.253-2.284,7.841-5.494,7.841
		c-5,0-5.741-2.978-5.741-10.769V45.714c0-2.33,0.74-3.772,1.975-3.969l1.975-0.248v-2.83h-14.877v2.83l1.975,0.248
		c1.234,0.197,1.975,1.639,1.975,3.969v11.762c0,8.685,2.531,12.756,12.285,12.756c6.358,0,9.816-2.531,9.816-11.861V45.714
		c0-1.884,0.37-3.772,2.037-3.969l1.975-0.248v-2.83h-11.914V41.497z M202.908,62.886l-7.531-10.076l7.717-7.94
		c1.728-1.786,2.963-3.027,3.827-3.125l2.037-0.248v-2.83H194.08v2.83l1.42,0.149c0.803,0.099,1.605,0.398,1.605,0.693
		c0,0.248-0.247,0.595-0.494,0.795l-7.778,8.088c-0.185,0.248-0.555,0.496-0.864,0.496v-6.005c0-2.33,0.741-3.772,1.975-3.969
		l1.975-0.248v-2.83h-14.877v2.83l1.975,0.248c1.235,0.197,1.975,1.639,1.975,3.969v17.172c0,2.282-0.494,3.721-1.975,3.969
		l-1.975,0.248v2.83h14.939v-2.83l-1.975-0.248c-1.543-0.248-2.037-1.687-2.037-3.969v-2.482l2.654-2.779l4.753,6.302
		c0.555,0.745,0.926,1.49,0.926,1.986c0,0.547-0.371,0.942-0.864,1.043l-1.359,0.147v2.83h15.803v-2.83l-2.222-0.248
		C206.056,66.657,204.451,64.971,202.908,62.886z M227.296,62.886V45.714c0-2.33,0.74-3.772,1.975-3.969l1.975-0.248v-2.83H216.37
		v2.83l1.975,0.248c1.234,0.197,1.975,1.639,1.975,3.969v17.172c0,2.282-0.494,3.721-1.975,3.969l-1.975,0.248v2.83h14.939v-2.83
		l-1.975-0.248C227.79,66.607,227.296,65.168,227.296,62.886z M260.88,62.489c0,2.383-1.543,3.523-5.864,3.523
		c-4.507,0-5.371-1.588-5.371-4.417v-15.88c0-2.33,0.74-3.772,1.975-3.969l1.976-0.248v-2.83h-14.878v2.83l1.975,0.248
		c1.234,0.197,1.976,1.639,1.976,3.969v17.172c0,2.282-0.494,3.721-1.976,3.969l-1.975,0.248v2.83h26.051V59.761h-3.889V62.489z
		 M268.537,51.124h3.642v-2.778c0-2.928,0.926-6.155,3.58-6.155c2.346,0,2.593,2.928,2.593,4.815v15.881
		c0,2.282-0.494,3.721-2.037,3.969l-1.975,0.248v2.83h14.939v-2.83l-1.914-0.248c-1.605-0.248-2.099-1.687-2.099-3.969V47.006
		c0-1.887,0.247-4.815,2.593-4.815c2.654,0,3.58,3.227,3.58,6.155v2.778h3.642V38.668h-26.545V51.124z M302.08,41.497l1.975,0.248
		c1.234,0.197,1.975,1.639,1.975,3.969v17.172c0,2.282-0.494,3.771-1.975,3.969l-1.975,0.248v2.83h24.26V58.717h-3.889v2.432
		c0,3.077-1.049,5.607-5.371,5.607c-3.148,0-4.074-1.439-4.074-3.424v-8.138h6.111v-3.524h-6.111V45.22
		c0-2.284,0.926-3.474,4.074-3.474c2.901,0,5.371,1.935,5.371,5.658v2.085h3.889v-10.82h-24.26V41.497z M359.999,49.536v9.131
		c0.062,6.253-5,11.565-12.779,11.565c-7.716,0-12.902-4.468-12.84-11.216l0.061-9.48c0-5.855,5.062-11.216,12.779-11.216
		C354.938,38.321,359.938,43.333,359.999,49.536z M351.604,47.056c0-2.781-0.741-5.509-4.383-5.509
		c-3.704,0-4.383,2.728-4.383,5.509v13.199c0,3.625,0.679,6.8,4.383,6.8c3.642,0,4.383-3.423,4.383-6.8V47.056z M99.138,26.501
		c-0.27-0.856-0.404-1.79-0.404-2.807c0.001-1.017,0.135-1.957,0.405-2.817c0.27-0.86,0.652-1.602,1.149-2.224
		c0.495-0.622,1.097-1.106,1.804-1.451c0.707-0.345,1.491-0.518,2.352-0.518c0.889,0,1.669,0.143,2.34,0.424
		c0.671,0.282,1.218,0.686,1.64,1.214l-1.509,1.583c-0.598-0.74-1.371-1.111-2.319-1.111c-0.525,0-0.984,0.128-1.378,0.386
		c-0.393,0.257-0.722,0.607-0.984,1.046c-0.262,0.441-0.459,0.958-0.59,1.554c-0.131,0.598-0.197,1.234-0.198,1.914
		c0,0.665,0.066,1.297,0.197,1.894c0.131,0.595,0.328,1.113,0.59,1.554c0.263,0.438,0.594,0.788,0.995,1.046
		c0.401,0.258,0.871,0.385,1.411,0.385c0.51,0,0.952-0.113,1.324-0.34c0.372-0.226,0.681-0.501,0.929-0.829l1.51,1.525
		c-0.408,0.528-0.93,0.957-1.565,1.282c-0.634,0.328-1.433,0.49-2.395,0.49c-0.875,0-1.666-0.176-2.373-0.525
		c-0.707-0.352-1.306-0.839-1.794-1.461C99.787,28.094,99.408,27.354,99.138,26.501z M114.855,17.023h-2.625l-0.001,13.341h2.625
		L114.855,17.023z M120.936,30.364h2.581l0.001-11.421h2.909v-1.921h-8.4v1.921h2.91L120.936,30.364z M133.996,22.94l-0.066,0.039
		l-2.319-5.955h-2.844l3.871,8.234v5.107h2.581v-5.107l3.916-8.234h-2.778L133.996,22.94z M148.399,26.546
		c-0.256-0.86-0.383-1.817-0.383-2.872c0.001-1.055,0.124-2.01,0.372-2.866c0.248-0.853,0.613-1.588,1.094-2.202
		c0.481-0.617,1.068-1.092,1.761-1.424c0.693-0.332,1.477-0.498,2.352-0.498c0.86,0,1.637,0.166,2.33,0.498
		c0.692,0.333,1.28,0.807,1.761,1.424c0.481,0.615,0.849,1.35,1.104,2.202c0.255,0.856,0.383,1.81,0.382,2.866
		c0,1.055-0.128,2.012-0.383,2.872c-0.256,0.86-0.624,1.601-1.104,2.215c-0.481,0.617-1.069,1.095-1.761,1.432
		c-0.693,0.339-1.469,0.508-2.33,0.508c-0.875,0-1.656-0.169-2.341-0.508c-0.686-0.337-1.269-0.815-1.75-1.432
		C149.023,28.147,148.654,27.407,148.399,26.546z M150.729,23.674c0,0.677,0.059,1.316,0.175,1.914
		c0.116,0.595,0.295,1.113,0.536,1.554c0.241,0.438,0.539,0.786,0.897,1.036c0.357,0.251,0.777,0.376,1.258,0.376
		c0.481,0,0.9-0.125,1.257-0.376c0.357-0.25,0.657-0.598,0.897-1.036c0.241-0.441,0.419-0.959,0.536-1.554
		c0.116-0.598,0.175-1.236,0.175-1.914c0.001-0.679-0.061-1.316-0.185-1.914c-0.124-0.595-0.307-1.111-0.547-1.545
		c-0.241-0.434-0.54-0.776-0.897-1.027c-0.357-0.25-0.769-0.376-1.236-0.376c-0.481,0-0.901,0.126-1.258,0.376
		c-0.358,0.251-0.656,0.593-0.897,1.027c-0.24,0.434-0.419,0.95-0.535,1.545C150.788,22.359,150.729,22.995,150.729,23.674z
		 M165.035,24.636h3.959l0.001-1.923h-3.982v-3.656h4.309v-2.034h-6.934l-0.001,13.341h2.647V24.636z"/>
	<g id="Logomark">
		<path id="Aqua_2_" fill="#4F9B99" d="M77.936,45.364c0-17.961-14.612-32.573-32.572-32.573S12.791,27.403,12.791,45.364
			c0,12.201,6.752,22.841,16.706,28.421v-5.247l-2.599,2.985l2.457-6.751l-5.847,3.993l5.42-8.049l-8.403,4.855l6.909-7.416
			l-9.429,3.846l9.002-7.047l-11.013,3.168l10.942-6.014l-12.405,1.895l12.049-4.67l-12.938,0.391l12.554-3.049l-12.853-1.311
			l12.853-1.31l-12.554-3.049l12.911,0.451l-12.022-4.73l12.73,2.205l-11.266-6.323l12.311,3.918l-10.3-7.799l11.663,5.558
			l-9.143-9.128l10.798,7.094l-7.815-10.288l9.731,8.499l-6.341-11.257l8.483,9.745l-4.749-12.015l7.077,10.808l-3.069-12.55
			l5.54,11.671l-1.331-12.851l3.899,12.318l0.431-12.912l2.082,12.13c0.033-0.445,0.067-0.81,0.098-0.923l0.002-0.036l0.004,0.017
			c0.002-0.005,0.006-0.02,0.006-0.02v0.039c0.031,0.113,0.065,0.478,0.098,0.924l2.082-12.13l0.431,12.912l3.899-12.318
			l-1.331,12.851l5.539-11.671l-3.069,12.55l7.077-10.808l-4.749,12.015l8.483-9.745l-6.341,11.257l9.731-8.499l-7.815,10.288
			l10.798-7.094l-9.143,9.128l11.663-5.558l-10.301,7.799l12.311-3.918L63.466,38.93l12.73-2.205l-12.022,4.73l12.911-0.451
			l-12.554,3.049l12.853,1.31l-12.853,1.311l12.554,3.049l-12.911-0.451l12.022,4.73l-12.73-2.205l11.266,6.323l-11.155-3.38
			l9.144,7.26l-9.287-3.846l6.766,7.416l-8.545-4.926l5.562,8.12l-5.989-4.087v0.135l2.599,6.71l-2.599-2.985v5.247
			C71.184,68.205,77.936,57.565,77.936,45.364z"/>
		<path id="Deep_Navy_2_" fill="#003660" d="M88.494,45.364c0,18.212-11.304,33.754-27.264,40.079V76.51
			c11.335-5.787,19.112-17.546,19.112-31.146c0-19.318-15.66-34.979-34.979-34.979s-34.979,15.66-34.979,34.979
			c0,13.6,7.777,25.359,19.112,31.145v8.934C13.537,79.118,2.233,63.576,2.233,45.364c0-23.821,19.31-43.131,43.131-43.131
			C69.184,2.233,88.494,21.543,88.494,45.364z M61.143,59.019l-0.281,0.304l-2.847,3.067v0.675v23.565
			c-3.98,1.211-8.202,1.864-12.578,1.864c-0.025,0-0.05,0-0.074,0c-0.025,0-0.049,0-0.074,0c-4.376,0-8.599-0.653-12.578-1.864
			V63.065V62.39l-2.847-3.067l-0.285-0.308l2.571-0.727l4.423,4.767v-2.246l-2.487-3.069l3.136-0.889l3.438,5.52v-2.69l-1.35-3.029
			h4.89l0.381,3.656l0.013,0.029l0.746,1.796l0.008-0.017l0.007,0.015l0.758-1.795l0.013-0.029l0.381-3.656h4.89l-1.35,3.075v2.644
			l3.438-5.52l3.136,0.889l-2.487,3.069v2.246l4.423-4.767L61.143,59.019z M49.18,75.581h-3.81h-0.012h-3.81v5.112h3.81h0.012h3.81
			V75.581z M49.18,68.368h-3.81h-0.012h-3.81v5.035h3.81h0.012h3.81V68.368z M37.643,54.604h0.031h15.361h0.031l0.03,0.009
			L62.19,57.2v-8.522l-8.729-2.306l-0.929-0.245l-0.776,0.002l-4.177,0.014V43.71c0,0-0.005-0.024-0.008-0.037
			c0.003-0.308-0.059-0.872-0.508-1.286c-0.299-0.276-0.788-0.369-1.116-0.398l-0.001-0.004h-0.578h-0.012H44.78l-0.001,0.004
			c-0.327,0.03-0.816,0.122-1.115,0.398c-0.45,0.414-0.511,0.978-0.508,1.286c-0.003,0.012-0.008,0.024-0.008,0.024v2.447
			L38.97,46.13v-7.491h6.387h0.006h0.001h0.006h6.387v0.001l1.704-0.001h0.012l1.482-1.376c0,0-6.581-2.205-7.76-3.145
			c-0.148-0.118-0.263-0.268-0.355-0.427c0.336-0.058,0.546-0.136,0.546-0.223c0-0.103-0.298-0.194-0.756-0.254
			c-0.069-0.21-0.113-0.409-0.147-0.559c0.361-0.074,0.594-0.184,0.594-0.307c0-0.141-0.301-0.266-0.759-0.339
			c-0.028-0.111-0.055-0.224-0.081-0.332c0.43-0.284,0.716-0.771,0.716-1.325c0-0.791-0.58-1.442-1.337-1.563v-0.627
			c0,0-0.07-1.555-0.148-2.613c-0.033-0.445-0.067-0.81-0.098-0.924v-0.039c0,0-0.004,0.015-0.006,0.02l-0.004-0.017l-0.002,0.036
			c-0.031,0.113-0.065,0.478-0.098,0.923c-0.078,1.059-0.147,2.614-0.147,2.614v0.627c-0.757,0.121-1.337,0.772-1.337,1.563
			c0,0.554,0.285,1.041,0.716,1.325c-0.026,0.108-0.054,0.221-0.082,0.332c-0.457,0.073-0.759,0.198-0.759,0.339
			c0,0.123,0.233,0.233,0.594,0.307c-0.034,0.15-0.078,0.348-0.147,0.559c-0.457,0.06-0.756,0.151-0.756,0.254
			c0,0.086,0.21,0.164,0.546,0.223c-0.092,0.159-0.207,0.309-0.355,0.427c-1.179,0.94-7.76,3.145-7.76,3.145l1.482,1.376h0.012
			v7.734l-8.729,2.306v8.517l9.076-2.582L37.643,54.604z"/>
	</g>
</g>
<g>
</g>
<g>
</g>
<g>
</g>
<g>
</g>
<g>
</g>
<g>
</g>
</svg>
