<?xml version="1.0" encoding="UTF-8"?>
<!-- Generator: Adobe Illustrator 30.3.0, SVG Export Plug-In . SVG Version: 9.03 Build 0)  -->
<svg version="1.1" id="Layer_1"
	 xmlns="http://www.w3.org/2000/svg" xmlns:xlink="http://www.w3.org/1999/xlink"
	 x="0px" y="0px" viewBox="0 0 468 270" enable-background="new 0 0 468 270" xml:space="preserve">
<path id="Vertical_Mukilteo_Black" d="M247.279,143.925v-7.23l3.581,4.113l-3.581-9.246v-0.186l8.252,5.631l-7.664-11.188
	l11.774,6.787l-9.323-10.219l12.796,5.299l-12.6-10.004l15.37,4.658l-15.524-8.713l17.54,3.038l-16.565-6.518l17.79,0.622
	l-17.298-4.201l17.709-1.807l-17.709-1.806l17.298-4.201l-17.79,0.622l16.565-6.518l-17.54,3.038l15.524-8.712l-16.963,5.399
	l14.193-10.746l-16.07,7.658l12.598-12.578l-14.878,9.775l10.768-14.176l-13.408,11.71l8.737-15.511l-11.689,13.427l6.544-16.555
	l-9.751,14.893l4.228-17.292l-7.633,16.082l1.834-17.707l-5.372,16.972l-0.594-17.792l-2.868,16.714
	c-0.045-0.614-0.092-1.117-0.135-1.273v-0.054c0,0-0.006,0.02-0.008,0.028l-0.006-0.023l-0.003,0.05
	c-0.043,0.156-0.09,0.659-0.135,1.272l-2.868-16.713l-0.594,17.792l-5.372-16.972l1.835,17.707l-7.633-16.082l4.228,17.292
	l-9.751-14.893l6.544,16.555l-11.689-13.427l8.737,15.511l-13.408-11.71l10.768,14.176l-14.878-9.775l12.598,12.578l-16.07-7.658
	l14.193,10.746l-16.963-5.399l15.524,8.712l-17.54-3.038l16.565,6.518l-17.79-0.622l17.298,4.201l-17.709,1.806l17.709,1.807
	l-17.298,4.201l17.828-0.539l-16.603,6.435l17.093-2.611l-15.076,8.286l15.174-4.365l-12.404,9.711l12.992-5.299l-9.52,10.219
	l11.578-6.69l-7.468,11.091l8.056-5.502l-3.385,9.302l3.581-4.113v7.23c-13.716-7.688-23.019-22.35-23.019-39.161
	c0-24.748,20.134-44.881,44.881-44.881s44.881,20.133,44.881,44.881C270.298,121.575,260.995,136.236,247.279,143.925z
	 M225.426,127.069L225.426,127.069l-0.008,0.019l0,0L225.426,127.069z M65.167,163.186c-0.874,0.452-1.974,0.674-3.3,0.674
	c-1.206,0-2.296-0.242-3.271-0.724c-0.975-0.485-1.799-1.156-2.471-2.012c-0.674-0.857-1.196-1.876-1.568-3.052
	c-0.372-1.179-0.557-2.467-0.557-3.868c0.001-1.401,0.186-2.696,0.558-3.882c0.372-1.185,0.899-2.208,1.583-3.065
	c0.682-0.857,1.512-1.524,2.486-1.999c0.975-0.475,2.055-0.714,3.241-0.714c1.225,0,2.3,0.196,3.225,0.584
	c0.924,0.388,1.678,0.946,2.26,1.674l-2.079,2.182c-0.824-1.019-1.889-1.531-3.195-1.531c-0.724,0-1.356,0.176-1.899,0.531
	c-0.542,0.355-0.994,0.837-1.356,1.441c-0.361,0.608-0.633,1.322-0.814,2.142c-0.181,0.823-0.271,1.7-0.272,2.636
	c0,0.916,0.09,1.786,0.271,2.61c0.181,0.82,0.452,1.534,0.814,2.142c0.362,0.604,0.818,1.086,1.371,1.441s1.2,0.531,1.944,0.531
	c0.703,0,1.312-0.156,1.824-0.468s0.939-0.691,1.281-1.142l2.08,2.102C66.76,162.147,66.041,162.738,65.167,163.186z
	 M72.596,163.395l0.001-18.382h3.617l-0.001,18.382H72.596z M88.15,147.66l-0.001,15.736h-3.556l0.001-15.736h-4.009v-2.646h11.574
	v2.646H88.15z M104.275,156.359v7.036h-3.557v-7.036l-5.334-11.346h3.918l3.195,8.205l0.09-0.053l3.256-8.152h3.828L104.275,156.359
	z M137.279,154.178c0,1.454-0.177,2.773-0.528,3.958c-0.352,1.185-0.859,2.205-1.522,3.051c-0.663,0.85-1.473,1.507-2.426,1.972
	c-0.955,0.468-2.025,0.701-3.21,0.701c-1.206,0-2.281-0.232-3.225-0.701c-0.946-0.465-1.748-1.122-2.411-1.972
	c-0.663-0.847-1.171-1.866-1.522-3.051c-0.352-1.185-0.527-2.504-0.527-3.958c0.001-1.454,0.171-2.769,0.513-3.948
	c0.341-1.175,0.844-2.188,1.507-3.035c0.663-0.85,1.472-1.504,2.426-1.962c0.955-0.458,2.035-0.687,3.241-0.687
	c1.185,0,2.255,0.229,3.21,0.687c0.954,0.458,1.763,1.112,2.426,1.962c0.662,0.847,1.17,1.859,1.522,3.035
	C137.103,151.408,137.28,152.723,137.279,154.178z M133.541,154.178c0.001-0.936-0.085-1.813-0.255-2.636
	c-0.171-0.82-0.423-1.531-0.754-2.128c-0.332-0.598-0.744-1.069-1.236-1.415c-0.492-0.345-1.06-0.518-1.703-0.518
	c-0.663,0-1.241,0.173-1.733,0.518c-0.493,0.345-0.904,0.817-1.236,1.415c-0.331,0.598-0.578,1.308-0.738,2.128
	c-0.161,0.823-0.242,1.7-0.242,2.636c0,0.933,0.081,1.813,0.242,2.636c0.16,0.82,0.407,1.534,0.738,2.142
	c0.332,0.604,0.743,1.082,1.236,1.428c0.492,0.345,1.07,0.518,1.733,0.518c0.662,0,1.24-0.173,1.732-0.518
	c0.492-0.345,0.905-0.823,1.236-1.428c0.332-0.608,0.578-1.322,0.739-2.142C133.46,155.991,133.541,155.111,133.541,154.178z
	 M145.327,147.816v5.037h5.486l-0.001,2.65h-5.456v7.893h-3.648l0.001-18.382h9.555v2.802H145.327z M65.346,208.208
	c0,3.144,0.681,5.06,2.807,5.469l1.872,0.342v3.898H54.458v-3.898l2.722-0.342c2.041-0.342,2.722-2.324,2.722-5.469v-23.662
	c0-3.211-1.021-5.197-2.722-5.469l-2.722-0.342v-3.898h19.054l5.274,20.992l5.019-20.992h18.628v3.898l-2.722,0.342
	c-1.701,0.272-2.722,2.258-2.722,5.469v23.662c0,3.144,0.681,5.127,2.807,5.469l2.722,0.342v3.898H82.783v-3.898l1.871-0.342
	c2.127-0.408,2.807-2.324,2.807-5.469v-23.662h-0.17l-8.081,33.371h-5.529l-8.166-33.371h-0.17V208.208z M111.965,174.838h20.5
	v3.898l-2.722,0.342c-1.702,0.272-2.722,2.258-2.722,5.469v14.567c0,10.735,1.02,14.839,7.91,14.839
	c4.424,0,7.571-2.188,7.571-10.805v-18.601c0-2.597-0.511-5.197-2.892-5.469l-2.636-0.342v-3.898h16.416v3.898l-2.722,0.342
	c-2.296,0.272-2.807,2.872-2.807,5.469v17.439c0,12.857-4.764,16.343-13.525,16.343c-13.44,0-16.927-5.608-16.927-17.575v-16.207
	c0-3.211-1.021-5.197-2.722-5.469l-2.722-0.342V174.838z M167.345,184.547c0-3.211-1.021-5.197-2.722-5.469l-2.722-0.342v-3.898
	h20.5v3.898l-2.722,0.342c-1.702,0.272-2.722,2.258-2.722,5.469v8.275c0.425,0,0.936-0.342,1.19-0.684l10.718-11.143
	c0.34-0.276,0.681-0.754,0.681-1.096c0-0.408-1.106-0.82-2.211-0.956l-1.957-0.206v-3.898h20.5v3.898l-2.807,0.342
	c-1.191,0.136-2.892,1.846-5.274,4.307l-10.633,10.941l10.377,13.883c2.127,2.872,4.338,5.197,6.55,5.469l3.062,0.342v3.898h-21.776
	v-3.898l1.872-0.203c0.68-0.139,1.19-0.684,1.19-1.438c0-0.684-0.511-1.71-1.276-2.736l-6.55-8.683l-3.657,3.828v3.42
	c0,3.144,0.681,5.127,2.807,5.469l2.722,0.342v3.898h-20.584v-3.898l2.722-0.342c2.041-0.342,2.722-2.324,2.722-5.469V184.547z
	 M221.535,184.547c0-3.211-1.021-5.197-2.722-5.469l-2.722-0.342v-3.898h20.5v3.898l-2.722,0.342
	c-1.702,0.272-2.722,2.258-2.722,5.469v23.662c0,3.144,0.681,5.127,2.807,5.469l2.722,0.342v3.898h-20.584v-3.898l2.722-0.342
	c2.041-0.342,2.722-2.324,2.722-5.469V184.547z M252.329,184.547c0-3.211-1.021-5.197-2.722-5.469l-2.722-0.342v-3.898h20.5v3.898
	l-2.722,0.342c-1.702,0.272-2.722,2.258-2.722,5.469v21.882c0,3.898,1.19,6.086,7.4,6.086c5.954,0,8.08-1.571,8.08-4.855v-3.759
	h5.359v14.016h-35.896v-3.898l2.722-0.342c2.041-0.342,2.722-2.324,2.722-5.469V184.547z M287.973,174.838h36.577v17.163h-5.019
	v-3.828c0-4.034-1.276-8.48-4.933-8.48c-3.232,0-3.573,4.034-3.573,6.634v21.882c0,3.144,0.681,5.127,2.892,5.469l2.637,0.342v3.898
	h-20.585v-3.898l2.722-0.342c2.127-0.342,2.807-2.324,2.807-5.469v-21.882c0-2.6-0.34-6.634-3.573-6.634
	c-3.657,0-4.933,4.446-4.933,8.48v3.828h-5.019V174.838z M349.247,197.609v11.213c0,2.736,1.276,4.718,5.614,4.718
	c5.954,0,7.4-3.486,7.4-7.727v-3.35h5.358v15.453h-33.429v-3.898l2.722-0.342c2.041-0.272,2.722-2.324,2.722-5.469v-23.662
	c0-3.211-1.021-5.197-2.722-5.469l-2.722-0.342v-3.898h33.429v14.909h-5.358v-2.872c0-5.13-3.403-7.796-7.4-7.796
	c-4.338,0-5.614,1.64-5.614,4.788v8.889h8.421v4.855H349.247z M413.999,202.394c0.086,8.617-6.89,15.935-17.608,15.935
	c-10.632,0-17.778-6.156-17.692-15.453l0.085-13.063c0-8.069,6.975-15.453,17.608-15.453c10.633,0,17.523,6.907,17.608,15.453
	V202.394z M390.353,204.582c0,4.994,0.936,9.37,6.039,9.37c5.019,0,6.039-4.718,6.039-9.37v-18.186c0-3.832-1.02-7.591-6.039-7.591
	c-5.104,0-6.039,3.759-6.039,7.591V204.582z M284.846,104.764c0,25.094-15.575,46.508-37.567,55.224v-12.309
	c15.618-7.974,26.335-24.177,26.335-42.915c0-26.618-21.578-48.196-48.196-48.196s-48.196,21.578-48.196,48.196
	c0,18.739,10.716,34.941,26.335,42.914v12.31c-21.992-8.716-37.567-30.131-37.567-55.224c0-32.823,26.607-59.429,59.429-59.429
	C258.239,45.335,284.846,71.941,284.846,104.764z M243.597,122.57l3.563,1.009l-0.387,0.417l-3.922,4.228v0.929v32.469
	c-5.483,1.67-11.302,2.57-17.331,2.57c-0.034,0-0.068-0.001-0.102-0.001c-0.034,0-0.068,0.001-0.102,0.001
	c-6.029,0-11.848-0.9-17.331-2.57v-32.469v-0.929l-3.922-4.228l-0.392-0.423l3.543-1.003l6.095,6.569v-3.095l-3.427-4.23
	l4.321-1.224l4.738,7.607v-3.708l-1.861-4.174h6.738l0.524,5.038l0.017,0.041l1.028,2.476l0.011-0.024l0.009,0.022l1.044-2.474
	l0.017-0.041l0.524-5.038h6.738l-1.861,4.239v3.643l4.738-7.607l4.321,1.224l-3.427,4.23v3.095L243.597,122.57z M230.675,146.4
	h-5.25h-0.016h-5.25v7.042h5.25h0.016h5.25V146.4z M230.675,136.459h-5.25h-0.016h-5.25v6.939h5.25h0.016h5.25V136.459z
	 M214.78,117.495h0.042h21.165h0.042l0.041,0.012l12.531,3.565V109.33l-12.028-3.177l-1.28-0.338l-1.069,0.003l-5.756,0.019v-3.354
	c0,0-0.007-0.034-0.01-0.051c0.004-0.425-0.081-1.202-0.7-1.772c-0.413-0.38-1.086-0.508-1.537-0.549l-0.001-0.005h-0.796h-0.016
	h-0.796l-0.001,0.005c-0.451,0.041-1.124,0.168-1.537,0.549c-0.62,0.571-0.704,1.348-0.7,1.772c-0.003,0.017-0.01,0.033-0.01,0.033
	v3.371l-5.756-0.019V95.497h8.801h0.008h0.001h0.008h8.801v0.001l2.348-0.001h0.016l2.042-1.896c0,0-9.068-3.038-10.693-4.333
	c-0.204-0.163-0.362-0.369-0.49-0.588c0.463-0.081,0.753-0.188,0.753-0.307c0-0.142-0.411-0.268-1.041-0.35
	c-0.095-0.29-0.156-0.564-0.203-0.77c0.497-0.103,0.818-0.253,0.818-0.423c0-0.194-0.415-0.366-1.046-0.467
	c-0.038-0.153-0.076-0.308-0.112-0.458c0.593-0.392,0.986-1.062,0.986-1.826c0-1.09-0.8-1.987-1.843-2.153v-0.864
	c0,0-0.096-2.142-0.203-3.601c-0.045-0.614-0.092-1.117-0.135-1.273v-0.054c0,0-0.006,0.021-0.008,0.028l-0.006-0.023l-0.003,0.05
	c-0.043,0.156-0.09,0.659-0.135,1.272c-0.107,1.459-0.203,3.602-0.203,3.602v0.864c-1.043,0.167-1.843,1.063-1.843,2.153
	c0,0.764,0.393,1.435,0.986,1.826c-0.036,0.149-0.074,0.305-0.112,0.458c-0.63,0.101-1.046,0.272-1.046,0.467
	c0,0.17,0.321,0.321,0.818,0.423c-0.047,0.206-0.108,0.48-0.203,0.77c-0.63,0.083-1.041,0.208-1.041,0.35
	c0,0.119,0.29,0.226,0.753,0.307c-0.127,0.22-0.285,0.426-0.49,0.588c-1.624,1.295-10.693,4.333-10.693,4.333l2.042,1.896h0.016
	v10.657l-12.028,3.177v11.735l12.506-3.558L214.78,117.495z"/>
<g>
</g>
<g>
</g>
<g>
</g>
<g>
</g>
<g>
</g>
<g>
</g>
</svg>
