<svg xmlns="http://www.w3.org/2000/svg" version="1.1" xmlns:xlink="http://www.w3.org/1999/xlink" width="1000" height="1000"><metadata><rdf:RDF xmlns:rdf="http://www.w3.org/1999/02/22-rdf-syntax-ns#" xmlns:dc="http://purl.org/dc/elements/1.1/"><rdf:Description><dc:creator>RealFaviconGenerator</dc:creator><dc:source>https://realfavicongenerator.net</dc:source></rdf:Description></rdf:RDF></metadata><style>
    #light-icon {
      display: inline;
    }
    #dark-icon {
      display: none;
    }

    @media (prefers-color-scheme: dark) {
      #light-icon {
        display: none;
      }
      #dark-icon {
        display: inline;
      }
    }
  </style><g id="light-icon"><svg xmlns="http://www.w3.org/2000/svg" version="1.1" xmlns:xlink="http://www.w3.org/1999/xlink" width="1000" height="1000"><g clip-path="url(#SvgjsClipPath1245)"><rect width="1000" height="1000" fill="#ffffff"></rect><g transform="matrix(8.413400864897609,0,0,8.413400864897609,0,0.004206700432462185)"><svg xmlns="http://www.w3.org/2000/svg" version="1.1" xmlns:xlink="http://www.w3.org/1999/xlink" id="Layer_1" x="0px" y="0px" viewBox="0 0 118.858 118.857" enable-background="new 0 0 118.858 118.857" xml:space="preserve" width="118.858" height="118.857"><path id="Aqua_3_" fill="#4F9B99" d="M81.29,98.59v-7.23l3.581,4.113l-3.581-9.246v-0.186l8.252,5.631l-7.664-11.188l11.774,6.787
	L84.33,77.053l12.796,5.299l-12.6-10.004l15.37,4.658l-15.524-8.713l17.54,3.038l-16.565-6.518l17.79,0.622l-17.298-4.201
	l17.709-1.807l-17.709-1.806l17.298-4.201l-17.79,0.622l16.565-6.518l-17.54,3.038l15.524-8.712L82.933,47.25l14.193-10.746
	l-16.07,7.658l12.598-12.578L78.775,41.36l10.768-14.176l-13.408,11.71l8.737-15.511L73.183,36.811l6.544-16.555l-9.751,14.893
	l4.228-17.292l-7.633,16.082l1.834-17.707l-5.372,16.972L62.44,15.412l-2.868,16.714c-0.045-0.614-0.092-1.117-0.135-1.273v-0.054
	c0,0-0.006,0.02-0.008,0.028l-0.006-0.023l-0.003,0.05c-0.043,0.156-0.09,0.659-0.135,1.272l-2.868-16.713l-0.594,17.792
	l-5.372-16.972l1.835,17.707l-7.633-16.082l4.228,17.292l-9.751-14.893l6.544,16.555L33.986,23.384l8.737,15.511l-13.408-11.71
	L40.082,41.36l-14.878-9.775l12.598,12.578l-16.07-7.658L35.925,47.25l-16.963-5.399l15.524,8.712l-17.54-3.038l16.565,6.518
	l-17.79-0.622l17.298,4.201l-17.709,1.806l17.709,1.807L15.72,65.436l17.828-0.539l-16.603,6.435l17.093-2.611l-15.076,8.286
	l15.174-4.365l-12.404,9.711l12.992-5.299l-9.519,10.219l11.578-6.69l-7.468,11.091l8.056-5.502l-3.385,9.302l3.581-4.113v7.23
	c-13.716-7.688-23.019-22.35-23.019-39.161c0-24.748,20.134-44.881,44.881-44.881s44.881,20.133,44.881,44.881
	C104.31,76.24,95.006,90.901,81.29,98.59z"></path><path id="Deep_Navy_3_" fill="#003660" d="M118.858,59.429c0,25.094-15.575,46.508-37.567,55.224v-12.309
	c15.618-7.974,26.335-24.177,26.335-42.915c0-26.618-21.578-48.196-48.196-48.196S11.232,32.811,11.232,59.429
	c0,18.739,10.716,34.941,26.335,42.914v12.31C15.575,105.937,0,84.523,0,59.429C0,26.606,26.607,0,59.429,0
	C92.25,0,118.858,26.606,118.858,59.429z M77.608,77.235l3.563,1.009l-0.387,0.417l-3.922,4.228v0.929v32.469
	c-5.483,1.67-11.302,2.57-17.331,2.57c-0.034,0-0.068-0.001-0.102-0.001c-0.034,0-0.068,0.001-0.102,0.001
	c-6.029,0-11.848-0.9-17.331-2.57V83.818v-0.929l-3.922-4.228l-0.392-0.423l3.543-1.003l6.095,6.569v-3.095l-3.427-4.23l4.321-1.224
	l4.738,7.607v-3.708l-1.861-4.174h6.738l0.524,5.038l0.017,0.041l1.028,2.476l0.011-0.024l0.009,0.022l1.044-2.474l0.017-0.041
	l0.524-5.038h6.738l-1.861,4.239v3.643l4.738-7.607l4.321,1.224l-3.427,4.23v3.095L77.608,77.235z M64.687,101.065h-5.25h-0.016
	h-5.25v7.042h5.25h0.016h5.25V101.065z M64.687,91.124h-5.25h-0.016h-5.25v6.939h5.25h0.016h5.25V91.124z M48.791,72.16h0.042
	h21.165h0.042l0.041,0.012l12.531,3.565V63.995l-12.028-3.177l-1.28-0.338l-1.069,0.003l-5.756,0.019V57.15
	c0,0-0.007-0.034-0.01-0.051c0.004-0.425-0.081-1.202-0.7-1.772c-0.413-0.38-1.086-0.508-1.537-0.549l-0.001-0.005h-0.796h-0.016
	h-0.796l-0.001,0.005c-0.451,0.041-1.124,0.168-1.537,0.549c-0.62,0.571-0.704,1.348-0.7,1.772c-0.003,0.017-0.01,0.033-0.01,0.033
	v3.371l-5.756-0.019V50.162h8.801h0.008h0.001h0.008h8.801v0.001l2.348-0.001h0.016l2.042-1.896c0,0-9.068-3.038-10.693-4.333
	c-0.204-0.163-0.362-0.369-0.49-0.588c0.463-0.081,0.753-0.188,0.753-0.307c0-0.142-0.411-0.268-1.041-0.35
	c-0.095-0.29-0.156-0.564-0.203-0.77c0.497-0.103,0.818-0.253,0.818-0.423c0-0.194-0.415-0.366-1.046-0.467
	c-0.038-0.153-0.076-0.308-0.112-0.458c0.593-0.392,0.986-1.062,0.986-1.826c0-1.09-0.8-1.987-1.843-2.153v-0.864
	c0,0-0.096-2.142-0.203-3.601c-0.045-0.614-0.092-1.117-0.135-1.273v-0.054c0,0-0.006,0.021-0.008,0.028l-0.006-0.023l-0.003,0.05
	c-0.043,0.156-0.09,0.659-0.135,1.272c-0.107,1.459-0.203,3.602-0.203,3.602v0.864c-1.043,0.167-1.843,1.063-1.843,2.153
	c0,0.764,0.393,1.435,0.986,1.826c-0.036,0.149-0.074,0.305-0.112,0.458c-0.63,0.101-1.046,0.272-1.046,0.467
	c0,0.17,0.321,0.321,0.818,0.423c-0.047,0.206-0.108,0.48-0.203,0.77c-0.63,0.083-1.041,0.208-1.041,0.35
	c0,0.119,0.29,0.226,0.753,0.307c-0.127,0.22-0.285,0.426-0.49,0.588c-1.624,1.295-10.693,4.333-10.693,4.333l2.042,1.896h0.016
	v10.657l-12.028,3.177V75.73l12.506-3.558L48.791,72.16z"></path><g>
</g><g>
</g><g>
</g><g>
</g><g>
</g><g>
</g></svg></g></g><defs><clipPath id="SvgjsClipPath1245"><rect width="1000" height="1000" x="0" y="0" rx="500" ry="500"></rect></clipPath></defs></svg></g><g id="dark-icon"><svg xmlns="http://www.w3.org/2000/svg" version="1.1" xmlns:xlink="http://www.w3.org/1999/xlink" width="1000" height="1000"><g clip-path="url(#SvgjsClipPath1246)"><rect width="1000" height="1000" fill="#ffffff"></rect><g transform="matrix(8.413400864897609,0,0,8.413400864897609,0,0.004206700432462185)"><svg xmlns="http://www.w3.org/2000/svg" version="1.1" xmlns:xlink="http://www.w3.org/1999/xlink" id="Layer_1" x="0px" y="0px" viewBox="0 0 118.858 118.857" enable-background="new 0 0 118.858 118.857" xml:space="preserve" width="118.858" height="118.857"><path id="Aqua_3_" fill="#4F9B99" d="M81.29,98.59v-7.23l3.581,4.113l-3.581-9.246v-0.186l8.252,5.631l-7.664-11.188l11.774,6.787
	L84.33,77.053l12.796,5.299l-12.6-10.004l15.37,4.658l-15.524-8.713l17.54,3.038l-16.565-6.518l17.79,0.622l-17.298-4.201
	l17.709-1.807l-17.709-1.806l17.298-4.201l-17.79,0.622l16.565-6.518l-17.54,3.038l15.524-8.712L82.933,47.25l14.193-10.746
	l-16.07,7.658l12.598-12.578L78.775,41.36l10.768-14.176l-13.408,11.71l8.737-15.511L73.183,36.811l6.544-16.555l-9.751,14.893
	l4.228-17.292l-7.633,16.082l1.834-17.707l-5.372,16.972L62.44,15.412l-2.868,16.714c-0.045-0.614-0.092-1.117-0.135-1.273v-0.054
	c0,0-0.006,0.02-0.008,0.028l-0.006-0.023l-0.003,0.05c-0.043,0.156-0.09,0.659-0.135,1.272l-2.868-16.713l-0.594,17.792
	l-5.372-16.972l1.835,17.707l-7.633-16.082l4.228,17.292l-9.751-14.893l6.544,16.555L33.986,23.384l8.737,15.511l-13.408-11.71
	L40.082,41.36l-14.878-9.775l12.598,12.578l-16.07-7.658L35.925,47.25l-16.963-5.399l15.524,8.712l-17.54-3.038l16.565,6.518
	l-17.79-0.622l17.298,4.201l-17.709,1.806l17.709,1.807L15.72,65.436l17.828-0.539l-16.603,6.435l17.093-2.611l-15.076,8.286
	l15.174-4.365l-12.404,9.711l12.992-5.299l-9.519,10.219l11.578-6.69l-7.468,11.091l8.056-5.502l-3.385,9.302l3.581-4.113v7.23
	c-13.716-7.688-23.019-22.35-23.019-39.161c0-24.748,20.134-44.881,44.881-44.881s44.881,20.133,44.881,44.881
	C104.31,76.24,95.006,90.901,81.29,98.59z"></path><path id="Deep_Navy_3_" fill="#003660" d="M118.858,59.429c0,25.094-15.575,46.508-37.567,55.224v-12.309
	c15.618-7.974,26.335-24.177,26.335-42.915c0-26.618-21.578-48.196-48.196-48.196S11.232,32.811,11.232,59.429
	c0,18.739,10.716,34.941,26.335,42.914v12.31C15.575,105.937,0,84.523,0,59.429C0,26.606,26.607,0,59.429,0
	C92.25,0,118.858,26.606,118.858,59.429z M77.608,77.235l3.563,1.009l-0.387,0.417l-3.922,4.228v0.929v32.469
	c-5.483,1.67-11.302,2.57-17.331,2.57c-0.034,0-0.068-0.001-0.102-0.001c-0.034,0-0.068,0.001-0.102,0.001
	c-6.029,0-11.848-0.9-17.331-2.57V83.818v-0.929l-3.922-4.228l-0.392-0.423l3.543-1.003l6.095,6.569v-3.095l-3.427-4.23l4.321-1.224
	l4.738,7.607v-3.708l-1.861-4.174h6.738l0.524,5.038l0.017,0.041l1.028,2.476l0.011-0.024l0.009,0.022l1.044-2.474l0.017-0.041
	l0.524-5.038h6.738l-1.861,4.239v3.643l4.738-7.607l4.321,1.224l-3.427,4.23v3.095L77.608,77.235z M64.687,101.065h-5.25h-0.016
	h-5.25v7.042h5.25h0.016h5.25V101.065z M64.687,91.124h-5.25h-0.016h-5.25v6.939h5.25h0.016h5.25V91.124z M48.791,72.16h0.042
	h21.165h0.042l0.041,0.012l12.531,3.565V63.995l-12.028-3.177l-1.28-0.338l-1.069,0.003l-5.756,0.019V57.15
	c0,0-0.007-0.034-0.01-0.051c0.004-0.425-0.081-1.202-0.7-1.772c-0.413-0.38-1.086-0.508-1.537-0.549l-0.001-0.005h-0.796h-0.016
	h-0.796l-0.001,0.005c-0.451,0.041-1.124,0.168-1.537,0.549c-0.62,0.571-0.704,1.348-0.7,1.772c-0.003,0.017-0.01,0.033-0.01,0.033
	v3.371l-5.756-0.019V50.162h8.801h0.008h0.001h0.008h8.801v0.001l2.348-0.001h0.016l2.042-1.896c0,0-9.068-3.038-10.693-4.333
	c-0.204-0.163-0.362-0.369-0.49-0.588c0.463-0.081,0.753-0.188,0.753-0.307c0-0.142-0.411-0.268-1.041-0.35
	c-0.095-0.29-0.156-0.564-0.203-0.77c0.497-0.103,0.818-0.253,0.818-0.423c0-0.194-0.415-0.366-1.046-0.467
	c-0.038-0.153-0.076-0.308-0.112-0.458c0.593-0.392,0.986-1.062,0.986-1.826c0-1.09-0.8-1.987-1.843-2.153v-0.864
	c0,0-0.096-2.142-0.203-3.601c-0.045-0.614-0.092-1.117-0.135-1.273v-0.054c0,0-0.006,0.021-0.008,0.028l-0.006-0.023l-0.003,0.05
	c-0.043,0.156-0.09,0.659-0.135,1.272c-0.107,1.459-0.203,3.602-0.203,3.602v0.864c-1.043,0.167-1.843,1.063-1.843,2.153
	c0,0.764,0.393,1.435,0.986,1.826c-0.036,0.149-0.074,0.305-0.112,0.458c-0.63,0.101-1.046,0.272-1.046,0.467
	c0,0.17,0.321,0.321,0.818,0.423c-0.047,0.206-0.108,0.48-0.203,0.77c-0.63,0.083-1.041,0.208-1.041,0.35
	c0,0.119,0.29,0.226,0.753,0.307c-0.127,0.22-0.285,0.426-0.49,0.588c-1.624,1.295-10.693,4.333-10.693,4.333l2.042,1.896h0.016
	v10.657l-12.028,3.177V75.73l12.506-3.558L48.791,72.16z"></path><g>
</g><g>
</g><g>
</g><g>
</g><g>
</g><g>
</g></svg></g></g><defs><clipPath id="SvgjsClipPath1246"><rect width="1000" height="1000" x="0" y="0" rx="500" ry="500"></rect></clipPath></defs></svg></g></svg>