<?xml version="1.0" encoding="UTF-8"?>
<!-- Generator: Adobe Illustrator 30.3.0, SVG Export Plug-In . SVG Version: 9.03 Build 0)  -->
<svg version="1.1" id="Layer_1"
	 xmlns="http://www.w3.org/2000/svg" xmlns:xlink="http://www.w3.org/1999/xlink"
	 x="0px" y="0px" viewBox="0 0 468 180" enable-background="new 0 0 468 180" xml:space="preserve">
<g id="Horizontal_Mukilteo_CMYK">
	<path id="Aqua" fill="#4F9B99" d="M115.23,118.422v-5.247l2.599,2.985l-2.599-6.71v-0.135l5.989,4.087l-5.562-8.12l8.545,4.926
		l-6.766-7.416l9.287,3.846l-9.144-7.26l11.155,3.38l-11.266-6.323l12.73,2.205l-12.022-4.73l12.911,0.451l-12.554-3.049L131.383,90
		l-12.853-1.31l12.554-3.049l-12.911,0.451l12.022-4.73l-12.73,2.205l11.266-6.323l-12.311,3.918l10.301-7.799l-11.663,5.558
		l9.143-9.128l-10.798,7.094l7.815-10.288l-9.731,8.499l6.341-11.257l-8.483,9.745l4.749-12.015l-7.077,10.808l3.069-12.55
		l-5.539,11.671l1.331-12.851l-3.899,12.318l-0.431-12.912l-2.082,12.13c-0.033-0.445-0.067-0.81-0.098-0.924v-0.039
		c0,0-0.004,0.015-0.006,0.02l-0.004-0.017l-0.002,0.036c-0.031,0.113-0.065,0.478-0.098,0.923l-2.082-12.13l-0.431,12.912
		L92.849,58.65l1.331,12.851l-5.54-11.671l3.069,12.55L84.632,61.57l4.749,12.015l-8.483-9.745l6.341,11.257l-9.731-8.499
		l7.815,10.288l-10.798-7.094l9.143,9.128l-11.663-5.558l10.3,7.799l-12.311-3.918l11.266,6.323l-12.73-2.205l12.022,4.73
		L67.642,85.64l12.554,3.049L67.343,90l12.853,1.311L67.642,94.36l12.938-0.391l-12.049,4.67l12.405-1.895l-10.942,6.014
		l11.013-3.168l-9.002,7.047l9.429-3.846l-6.909,7.416l8.403-4.855l-5.42,8.049l5.847-3.993l-2.457,6.751l2.599-2.985v5.247
		c-9.954-5.58-16.706-16.22-16.706-28.421c0-17.961,14.612-32.573,32.573-32.573s32.572,14.612,32.572,32.573
		C131.936,102.201,125.184,112.842,115.23,118.422z"/>
	<path id="Deep_Navy" fill="#003660" d="M142.494,90.001c0,18.212-11.304,33.754-27.264,40.079v-8.933
		c11.335-5.787,19.112-17.546,19.112-31.146c0-19.318-15.66-34.979-34.979-34.979s-34.979,15.66-34.979,34.979
		c0,13.6,7.777,25.359,19.112,31.145v8.934c-15.961-6.326-27.264-21.867-27.264-40.079c0-23.821,19.31-43.131,43.131-43.131
		C123.184,46.87,142.494,66.18,142.494,90.001z M115.143,103.655l-0.281,0.304l-2.847,3.067v0.675v23.565
		c-3.98,1.211-8.202,1.864-12.578,1.864c-0.025,0-0.05,0-0.074,0c-0.025,0-0.049,0-0.074,0c-4.376,0-8.599-0.653-12.578-1.864
		v-23.565v-0.675l-2.847-3.067l-0.285-0.308l2.571-0.727l4.423,4.767v-2.246l-2.487-3.069l3.136-0.889l3.438,5.52v-2.69l-1.35-3.029
		h4.89l0.381,3.656l0.013,0.029l0.746,1.796l0.008-0.017l0.007,0.015l0.758-1.795l0.013-0.029l0.381-3.656h4.89l-1.35,3.075v2.644
		l3.438-5.52l3.136,0.889l-2.487,3.069v2.246l4.423-4.767L115.143,103.655z M103.179,120.218h-3.81h-0.012h-3.81v5.112h3.81h0.012
		h3.81V120.218z M103.179,113.004h-3.81h-0.012h-3.81v5.035h3.81h0.012h3.81V113.004z M91.643,99.241h0.031h15.361h0.031l0.03,0.009
		l9.095,2.588v-8.522l-8.729-2.306l-0.929-0.245l-0.776,0.002l-4.177,0.014v-2.434c0,0-0.005-0.024-0.008-0.037
		c0.003-0.308-0.059-0.872-0.508-1.286c-0.299-0.276-0.788-0.369-1.116-0.398l-0.001-0.004h-0.578h-0.012H98.78l-0.001,0.004
		c-0.327,0.03-0.816,0.122-1.115,0.398c-0.45,0.414-0.511,0.978-0.508,1.286c-0.003,0.012-0.008,0.024-0.008,0.024v2.447
		l-4.177-0.014v-7.491h6.387h0.006h0.001h0.006h6.387v0.001l1.704-0.001h0.012l1.482-1.376c0,0-6.581-2.205-7.76-3.145
		c-0.148-0.118-0.263-0.268-0.355-0.427c0.336-0.058,0.546-0.136,0.546-0.223c0-0.103-0.298-0.194-0.756-0.254
		c-0.069-0.21-0.113-0.409-0.147-0.559c0.361-0.074,0.594-0.184,0.594-0.307c0-0.141-0.301-0.266-0.759-0.339
		c-0.028-0.111-0.055-0.224-0.081-0.332c0.43-0.284,0.716-0.771,0.716-1.325c0-0.791-0.58-1.442-1.337-1.563v-0.627
		c0,0-0.07-1.555-0.148-2.613c-0.033-0.445-0.067-0.81-0.098-0.924v-0.039c0,0-0.004,0.015-0.006,0.02l-0.004-0.017l-0.002,0.036
		c-0.031,0.113-0.065,0.478-0.098,0.923c-0.078,1.059-0.147,2.614-0.147,2.614v0.627c-0.757,0.121-1.337,0.772-1.337,1.563
		c0,0.554,0.285,1.041,0.716,1.325c-0.026,0.108-0.054,0.221-0.082,0.332c-0.457,0.073-0.759,0.198-0.759,0.339
		c0,0.123,0.233,0.233,0.594,0.307c-0.034,0.15-0.078,0.348-0.147,0.559c-0.457,0.06-0.756,0.151-0.756,0.254
		c0,0.086,0.21,0.164,0.546,0.223c-0.092,0.159-0.207,0.309-0.355,0.427c-1.179,0.94-7.76,3.145-7.76,3.145l1.482,1.376h0.012v7.734
		l-8.729,2.306v8.517l9.076-2.582L91.643,99.241z M183.932,107.523V90.351c0-2.33,0.741-3.772,1.975-3.969l1.975-0.248v-2.83
		h-13.519l-3.642,15.235l-3.827-15.235h-13.828v2.83l1.975,0.248c1.234,0.197,1.975,1.639,1.975,3.969v17.172
		c0,2.282-0.494,3.721-1.975,3.969l-1.975,0.248v2.83h11.297v-2.83l-1.359-0.248c-1.543-0.297-2.037-1.687-2.037-3.969V90.351h0.124
		l5.926,24.219h4.012l5.865-24.219h0.123v17.172c0,2.282-0.494,3.672-2.037,3.969l-1.358,0.248v2.83h14.322v-2.83l-1.975-0.248
		C184.426,111.244,183.932,109.805,183.932,107.523z M212.951,83.304h11.914v2.83l-1.975,0.248
		c-1.666,0.197-2.037,2.085-2.037,3.969v12.656c0,9.331-3.458,11.861-9.816,11.861c-9.754,0-12.285-4.071-12.285-12.756V90.351
		c0-2.33-0.741-3.772-1.975-3.969l-1.975-0.248v-2.83h14.877v2.83l-1.975,0.248c-1.235,0.197-1.975,1.639-1.975,3.969v10.572
		c0,7.791,0.74,10.769,5.741,10.769c3.21,0,5.494-1.588,5.494-7.841v-13.5c0-1.884-0.37-3.772-2.099-3.969l-1.913-0.248V83.304z
		 M261.661,111.492l2.222,0.248v2.83H248.08v-2.83l1.359-0.147c0.493-0.101,0.864-0.496,0.864-1.043
		c0-0.496-0.371-1.241-0.926-1.986l-4.753-6.302l-2.654,2.779v2.482c0,2.282,0.494,3.721,2.037,3.969l1.975,0.248v2.83h-14.939
		v-2.83l1.975-0.248c1.481-0.248,1.975-1.687,1.975-3.969V90.351c0-2.33-0.741-3.772-1.975-3.969l-1.975-0.248v-2.83h14.877v2.83
		l-1.975,0.248c-1.235,0.197-1.975,1.639-1.975,3.969v6.005c0.309,0,0.679-0.248,0.864-0.496l7.778-8.088
		c0.247-0.2,0.494-0.547,0.494-0.795c0-0.296-0.802-0.595-1.605-0.693l-1.42-0.149v-2.83h14.877v2.83l-2.037,0.248
		c-0.865,0.099-2.099,1.34-3.827,3.125l-7.717,7.94l7.531,10.076C258.451,109.608,260.056,111.294,261.661,111.492z
		 M283.333,111.492l1.975,0.248v2.83H270.37v-2.83l1.975-0.248c1.481-0.248,1.975-1.687,1.975-3.969V90.351
		c0-2.33-0.741-3.772-1.975-3.969l-1.975-0.248v-2.83h14.877v2.83l-1.975,0.248c-1.235,0.197-1.975,1.639-1.975,3.969v17.172
		C281.296,109.805,281.79,111.244,283.333,111.492z M314.88,104.398h3.889v10.172h-26.051v-2.83l1.975-0.248
		c1.482-0.248,1.976-1.687,1.976-3.969V90.351c0-2.33-0.741-3.772-1.976-3.969l-1.975-0.248v-2.83h14.878v2.83l-1.976,0.248
		c-1.235,0.197-1.975,1.639-1.975,3.969v15.88c0,2.829,0.864,4.417,5.371,4.417c4.321,0,5.864-1.14,5.864-3.523V104.398z
		 M322.537,83.304h26.545V95.76h-3.642v-2.778c0-2.928-0.926-6.155-3.58-6.155c-2.346,0-2.593,2.928-2.593,4.815v15.881
		c0,2.282,0.494,3.721,2.099,3.969l1.914,0.248v2.83H328.34v-2.83l1.975-0.248c1.543-0.248,2.037-1.687,2.037-3.969V91.642
		c0-1.887-0.247-4.815-2.593-4.815c-2.654,0-3.58,3.227-3.58,6.155v2.778h-3.642V83.304z M356.08,83.304h24.261v10.82h-3.889V92.04
		c0-3.722-2.469-5.658-5.371-5.658c-3.148,0-4.074,1.19-4.074,3.474v6.451h6.111v3.524h-6.111v8.138
		c0,1.985,0.926,3.424,4.074,3.424c4.321,0,5.371-2.531,5.371-5.607v-2.432h3.889v11.216H356.08v-2.83l1.975-0.248
		c1.481-0.198,1.975-1.687,1.975-3.969V90.351c0-2.33-0.741-3.772-1.975-3.969l-1.975-0.248V83.304z M401.221,82.957
		c-7.716,0-12.779,5.36-12.779,11.216l-0.061,9.48c-0.062,6.748,5.124,11.216,12.84,11.216c7.778,0,12.841-5.312,12.779-11.565
		v-9.131C413.938,87.97,408.938,82.957,401.221,82.957z M405.604,104.891c0,3.376-0.741,6.8-4.383,6.8
		c-3.704,0-4.383-3.175-4.383-6.8V91.693c0-2.781,0.679-5.509,4.383-5.509c3.642,0,4.383,2.728,4.383,5.509V104.891z
		 M154.276,73.352c0.488,0.622,1.086,1.109,1.794,1.461c0.707,0.349,1.498,0.525,2.373,0.525c0.962,0,1.76-0.162,2.395-0.49
		c0.634-0.325,1.156-0.754,1.565-1.282l-1.51-1.525c-0.248,0.328-0.558,0.602-0.929,0.829c-0.372,0.226-0.813,0.34-1.324,0.34
		c-0.54,0-1.01-0.127-1.411-0.385c-0.401-0.258-0.733-0.608-0.995-1.046c-0.262-0.441-0.459-0.959-0.59-1.554
		c-0.131-0.598-0.197-1.229-0.197-1.894c0.001-0.679,0.066-1.316,0.198-1.914c0.131-0.595,0.328-1.113,0.59-1.554
		c0.263-0.439,0.591-0.789,0.984-1.046c0.394-0.258,0.853-0.386,1.378-0.386c0.948,0,1.721,0.371,2.319,1.111l1.509-1.583
		c-0.423-0.528-0.97-0.932-1.64-1.214c-0.671-0.282-1.451-0.424-2.34-0.424c-0.861,0-1.645,0.173-2.352,0.518
		c-0.707,0.344-1.309,0.829-1.804,1.451c-0.496,0.622-0.879,1.364-1.149,2.224c-0.27,0.86-0.404,1.8-0.405,2.817
		c0,1.017,0.134,1.951,0.404,2.807C153.408,71.99,153.787,72.731,154.276,73.352z M168.855,75.001h-2.625l0.001-13.341h2.625
		L168.855,75.001z M174.937,63.58h-2.91V61.66h8.4v1.921h-2.909l-0.001,11.421h-2.581L174.937,63.58z M190.359,61.66h2.778
		l-3.916,8.234v5.107h-2.581v-5.107l-3.871-8.234h2.844l2.319,5.955l0.066-0.039L190.359,61.66z M203.504,73.398
		c0.481,0.617,1.064,1.095,1.75,1.432c0.685,0.339,1.465,0.508,2.341,0.508c0.86,0,1.637-0.169,2.33-0.508
		c0.692-0.337,1.28-0.815,1.761-1.432c0.481-0.614,0.849-1.354,1.104-2.215c0.255-0.86,0.383-1.817,0.383-2.872
		c0.001-1.055-0.128-2.01-0.382-2.866c-0.256-0.853-0.624-1.588-1.104-2.202c-0.481-0.617-1.069-1.092-1.761-1.424
		c-0.693-0.332-1.469-0.498-2.33-0.498c-0.875,0-1.659,0.166-2.352,0.498c-0.693,0.333-1.28,0.807-1.761,1.424
		c-0.481,0.615-0.846,1.35-1.094,2.202c-0.248,0.856-0.372,1.81-0.372,2.866c0,1.055,0.127,2.012,0.383,2.872
		C202.654,72.043,203.023,72.784,203.504,73.398z M204.905,66.397c0.116-0.595,0.295-1.111,0.535-1.545
		c0.241-0.434,0.539-0.776,0.897-1.027c0.357-0.25,0.777-0.376,1.258-0.376c0.466,0,0.878,0.126,1.236,0.376
		c0.357,0.251,0.656,0.593,0.897,1.027c0.241,0.434,0.423,0.95,0.547,1.545c0.123,0.598,0.185,1.234,0.185,1.914
		c0,0.677-0.058,1.316-0.175,1.914c-0.117,0.595-0.295,1.113-0.536,1.554c-0.24,0.438-0.54,0.786-0.897,1.036
		c-0.357,0.251-0.777,0.376-1.257,0.376c-0.481,0-0.901-0.125-1.258-0.376c-0.358-0.25-0.656-0.598-0.897-1.036
		c-0.24-0.441-0.419-0.959-0.536-1.554c-0.117-0.598-0.175-1.236-0.175-1.914C204.729,67.632,204.788,66.995,204.905,66.397z
		 M219.035,75.001h-2.647l0.001-13.341h6.934v2.034h-4.309v3.656h3.982l-0.001,1.923h-3.959V75.001z"/>
</g>
<g>
</g>
<g>
</g>
<g>
</g>
<g>
</g>
<g>
</g>
<g>
</g>
</svg>
