<?xml version="1.0" encoding="UTF-8"?>
<!-- Generator: Adobe Illustrator 30.3.0, SVG Export Plug-In . SVG Version: 9.03 Build 0)  -->
<svg version="1.1" id="Layer_1"
	 xmlns="http://www.w3.org/2000/svg" xmlns:xlink="http://www.w3.org/1999/xlink"
	 x="0px" y="0px" viewBox="0 0 1667 1057" enable-background="new 0 0 1667 1057" xml:space="preserve">
<rect x="870.055" y="154" fill="#051E42" width="594.945" height="707"/>
<path fill="#DBDBDB" stroke="#DBDBDB" stroke-width="15" stroke-miterlimit="10" d="M644.099,499.042
	c4.717-15.598,9.433-31.016,14.15-46.24c-24.223-8.975-48.446-12.82-72.669-13.5V255.444L463.63,221l-121.95,34.444v210.565
	c-21.81-1.199-43.62-5.126-65.43-13.207c4.717,17.498,9.433,34.802,14.15,51.926c-4.717,15.639-9.433,31.098-14.15,46.363
	c21.81,8.081,43.62,12.003,65.43,13.201v11.264L463.63,610l121.95-34.444v-37.972c24.223,0.68,48.446,4.532,72.669,13.507
	C653.533,533.552,648.816,516.207,644.099,499.042z"/>
<g>
	<polygon fill="#051E42" points="463.63,221 341.68,255.444 341.68,516.556 463.63,551 585.58,516.556 585.58,255.444 	"/>
	<g>
		<polygon fill="#FFFFFF" points="495.7,327.263 502.916,320.024 503.628,319.308 497.073,317.58 485.861,328.831 485.861,323.529 
			492.164,316.286 484.215,314.188 475.499,327.216 475.499,320.977 478.922,313.718 466.527,313.718 465.563,322.347 
			465.532,322.416 463.61,326.653 463.592,326.616 463.573,326.656 461.681,322.416 461.649,322.347 460.685,313.718 
			448.291,313.718 451.713,320.868 451.713,327.216 442.999,314.188 435.049,316.286 441.352,323.529 441.352,328.831 
			430.139,317.58 423.621,319.297 424.343,320.024 431.559,327.263 431.559,328.856 431.559,418.805 463.284,414.069 495.7,418.805 
			495.7,328.856 		"/>
		<path fill="#C14734" d="M444.06,308.888h0.078h38.936h0.078l0.075,0.02l23.053,6.107v-20.113l-22.127-5.441l-2.354-0.579
			l-1.965,0.006l-10.589,0.032v-5.744c0,0-0.013-0.058-0.02-0.087c0.007-0.728-0.148-2.059-1.287-3.036
			c-0.76-0.652-1.998-0.87-2.828-0.94l-0.002-0.009h-1.464h-0.029h-1.464l-0.002,0.009c-0.83,0.07-2.068,0.289-2.827,0.94
			c-1.14,0.977-1.296,2.308-1.289,3.036c-0.006,0.029-0.018,0.057-0.018,0.057v5.774l-10.59-0.032v-17.681h16.19h0.015h0.001h0.013
			h16.19v0.002l4.319-0.002h0.031l3.756-3.247c0,0-16.681-5.203-19.67-7.421c-0.376-0.279-0.666-0.632-0.9-1.008
			c0.852-0.138,1.385-0.322,1.385-0.525c0-0.243-0.756-0.458-1.916-0.599c-0.175-0.497-0.288-0.967-0.374-1.32
			c0.916-0.175,1.506-0.433,1.506-0.725c0-0.333-0.765-0.627-1.923-0.8c-0.071-0.262-0.141-0.528-0.206-0.784
			c1.09-0.671,1.813-1.82,1.813-3.128c0-1.867-1.47-3.403-3.39-3.688v-1.48c0,0-0.176-3.669-0.374-6.167
			c-0.083-1.051-0.169-1.913-0.248-2.181v-0.093c0,0-0.01,0.035-0.015,0.048l-0.01-0.041l-0.005,0.085
			c-0.078,0.268-0.164,1.129-0.248,2.179c-0.197,2.5-0.372,6.169-0.372,6.169v1.48c-1.92,0.285-3.39,1.821-3.39,3.688
			c0,1.308,0.721,2.457,1.813,3.128c-0.066,0.256-0.137,0.522-0.206,0.784c-1.16,0.172-1.923,0.467-1.923,0.8
			c0,0.291,0.591,0.55,1.505,0.725c-0.087,0.353-0.198,0.823-0.373,1.32c-1.159,0.141-1.916,0.356-1.916,0.599
			c0,0.204,0.532,0.387,1.385,0.525c-0.234,0.376-0.525,0.729-0.901,1.008c-2.988,2.218-19.671,7.421-19.671,7.421l3.757,3.247h0.03
			v18.254l-22.127,5.441v20.1l23.006-6.094L444.06,308.888z"/>
	</g>
	<g>
		<polygon fill="#051E42" points="474.819,335.069 463.646,335.069 463.612,335.069 452.44,335.069 452.44,349.696 463.612,349.696 
			463.646,349.696 474.819,349.696 		"/>
		<polygon fill="#051E42" points="474.819,356.024 463.646,356.024 463.612,356.024 452.44,356.024 452.44,370.874 463.612,370.874 
			463.646,370.874 474.819,370.874 		"/>
	</g>
	<g>
		<defs>
			<polygon id="SVGID_1_" points="463.63,221 341.68,255.444 341.68,575.556 463.63,610 585.58,575.556 585.58,255.444 			"/>
		</defs>
		<clipPath id="SVGID_00000084507365658304972230000006315677254664610979_">
			<use xlink:href="#SVGID_1_"  overflow="visible"/>
		</clipPath>
		<path clip-path="url(#SVGID_00000084507365658304972230000006315677254664610979_)" fill="#5BA28F" d="M634.705,401.978
			c-9.993,0-18.865-4.511-24.438-11.483c-5.573,6.972-14.444,11.483-24.438,11.483s-18.865-4.511-24.438-11.483
			c-5.573,6.972-14.444,11.483-24.438,11.483c-9.993,0-18.865-4.511-24.438-11.483c-5.573,6.972-14.444,11.483-24.438,11.483
			s-18.865-4.511-24.438-11.483c-5.573,6.972-14.444,11.483-24.438,11.483c-9.993,0-18.865-4.511-24.438-11.483
			c-5.573,6.972-14.444,11.483-24.438,11.483c-9.993,0-18.865-4.511-24.438-11.483c-5.573,6.972-14.444,11.483-24.438,11.483
			c-9.993,0-18.865-4.511-24.438-11.483c-5.573,6.972-14.444,11.483-24.438,11.483c-9.993,0-18.865-4.511-24.438-11.483
			c-5.573,6.972-14.444,11.483-24.438,11.483s-18.865-4.511-24.438-11.483v174.609l222.324,75.23l214.839-75.23V393.449
			C650.89,398.714,643.204,401.978,634.705,401.978z"/>
	</g>
</g>
<g>
	<g>
		<g>
			<path fill="#C14734" d="M276.249,452.801c63.538,23.542,127.076,11.842,190.614,0.071
				c63.795-11.818,127.591-23.708,191.386-0.071c-4.717,15.224-9.433,30.642-14.15,46.24c4.717,17.165,9.433,34.51,14.15,52.049
				c-64.547-23.916-129.094-11.462-193.641,0.489c-62.786,11.625-125.573,22.774-188.359-0.489
				c4.717-15.265,9.433-30.724,14.15-46.363C285.683,487.604,280.966,470.3,276.249,452.801z"/>
		</g>
		<g>
			<path fill="#FFFFFF" d="M326.208,525.21c0,1.321,0,2.643,0,3.964c-3.523-0.415-7.046-0.91-10.569-1.491
				c0-9.474,0-18.949,0-28.423c3.432,0.566,6.863,1.05,10.295,1.459c0,1.321,0,2.643,0,3.964c-2.105-0.25-4.21-0.529-6.314-0.838
				c0,2.628,0,5.255,0,7.883c1.773,0.26,3.546,0.499,5.319,0.718c0,1.336,0,2.673,0,4.009c-1.773-0.219-3.546-0.458-5.319-0.718
				c0,2.868,0,5.736,0,8.604C321.816,524.662,324.012,524.952,326.208,525.21z"/>
			<path fill="#FFFFFF" d="M336.55,518.907c0-0.946-0.206-1.231-0.961-1.29c-0.927-0.073-1.853-0.151-2.78-0.235
				c-2.574-0.235-3.535-2.013-3.535-4.849c0-2.327,0-4.655,0-6.982c0-2.841,1.064-4.339,3.706-4.1
				c1.258,0.112,2.517,0.215,3.775,0.309c2.608,0.19,3.707,1.867,3.707,4.707c0,1.321,0,2.643,0,3.964
				c-1.327-0.079-2.654-0.169-3.981-0.268c0-1.081,0-2.162,0-3.243c0-0.946-0.206-1.231-0.961-1.29
				c-0.435-0.034-0.869-0.07-1.304-0.107c-0.755-0.064-0.996,0.184-0.996,1.13c0,1.907,0,3.814,0,5.721
				c0,0.946,0.24,1.238,0.996,1.302c0.904,0.076,1.807,0.147,2.711,0.214c2.574,0.186,3.603,1.813,3.603,4.653
				c0,2.477,0,4.955,0,7.432c0,2.835-1.098,4.402-3.74,4.21c-1.236-0.091-2.471-0.192-3.707-0.302
				c-2.642-0.238-3.74-1.986-3.74-4.821c0-1.306,0-2.612,0-3.918c1.315,0.137,2.631,0.264,3.946,0.38c0,1.066,0,2.132,0,3.198
				c0,0.945,0.24,1.238,0.995,1.302c0.435,0.037,0.869,0.072,1.304,0.106c0.755,0.059,0.961-0.197,0.961-1.142
				C336.55,522.961,336.55,520.934,336.55,518.907z"/>
			<path fill="#FFFFFF" d="M354.898,506.446c-1.27-0.009-2.539-0.026-3.809-0.052c0,8.153,0,16.306,0,24.459
				c-1.316-0.027-2.631-0.063-3.947-0.108c0-8.153,0-16.306,0-24.459c-1.258-0.043-2.517-0.096-3.775-0.157c0-1.321,0-2.643,0-3.964
				c3.844,0.187,7.687,0.289,11.531,0.317C354.898,503.803,354.898,505.125,354.898,506.446z"/>
			<path fill="#FFFFFF" d="M355.758,524.829c1.396,0.006,2.791,0.002,4.187-0.012c0,2.027,0,4.054,0,6.081
				c-1.396,0.014-2.791,0.018-4.187,0.012C355.758,528.883,355.758,526.856,355.758,524.829z"/>
			<path fill="#FFFFFF" d="M586.3,503.806c-1.316-0.04-2.631-0.071-3.947-0.093c0-8.153,0-16.306,0-24.459
				c-0.892-0.015-1.785-0.025-2.677-0.032c0-1.321,0-2.643,0-3.964c2.208,0.016,4.416,0.057,6.623,0.125
				C586.3,484.858,586.3,494.332,586.3,503.806z"/>
			<path fill="#FFFFFF" d="M597.496,475.961c2.642,0.196,3.74,1.926,3.74,4.761c0,6.501,0,13.003,0,19.504
				c0,2.84-1.098,4.354-3.74,4.158c-1.247-0.091-2.494-0.173-3.741-0.246c-2.642-0.152-3.741-1.811-3.741-4.652
				c0-1.426,0-2.853,0-4.279c1.293,0.057,2.585,0.124,3.878,0.2c0,1.186,0,2.372,0,3.558c0,0.946,0.206,1.228,0.961,1.275
				c0.515,0.032,1.03,0.066,1.544,0.102c0.755,0.052,0.96-0.202,0.96-1.148c0-2.087,0-4.174,0-6.261
				c-1.247-0.091-2.493-0.172-3.74-0.244c-2.643-0.15-3.741-1.809-3.741-4.649c0-2.688,0-5.375,0-8.063
				c0-2.835,1.098-4.419,3.741-4.269C594.911,475.782,596.203,475.867,597.496,475.961z M597.358,489.195c0-2.688,0-5.375,0-8.063
				c0-0.946-0.206-1.232-0.96-1.284c-0.561-0.039-1.121-0.075-1.682-0.11c-0.755-0.047-0.961,0.213-0.961,1.158
				c0,2.282,0,4.564,0,6.847c0,0.946,0.206,1.227,0.961,1.274C595.597,489.071,596.477,489.13,597.358,489.195z"/>
			<path fill="#FFFFFF" d="M617.965,501.262c-0.686-0.11-1.373-0.217-2.059-0.321c0,1.832,0,3.663,0,5.495
				c-1.247-0.189-2.494-0.367-3.741-0.535c0-1.832,0-3.663,0-5.495c-2.619-0.353-5.239-0.66-7.858-0.924c0-1.471,0-2.943,0-4.415
				c2.265-5.942,4.53-11.853,6.795-17.729c1.315,0.171,2.631,0.353,3.946,0.547c-2.379,5.955-4.759,11.948-7.138,17.978
				c1.418,0.165,2.837,0.343,4.255,0.534c0-1.832,0-3.663,0-5.495c1.247,0.168,2.494,0.346,3.741,0.535c0,1.832,0,3.663,0,5.495
				c0.686,0.104,1.373,0.211,2.059,0.321C617.965,498.589,617.965,499.926,617.965,501.262z"/>
			<path fill="#FFFFFF" d="M630.136,483.704c-2.013,8.013-4.026,16.055-6.04,24.127c-1.35-0.256-2.7-0.499-4.05-0.729
				c1.956-7.744,3.912-15.462,5.869-23.152c-2.219-0.44-4.438-0.844-6.658-1.214c0-1.396,0-2.793,0-4.189
				c3.626,0.605,7.252,1.301,10.878,2.095C630.136,481.662,630.136,482.683,630.136,483.704z"/>
		</g>
	</g>
</g>
<g>
	<g>
		<path fill="#051E42" d="M431.552,575.579h-32.441v-6.156c0-44.281,24.863-89.509,39.545-112.477l-1.184-0.711
			c-4.262,0.474-11.13-2.131-16.103-4.025c-4.972-1.657-9.709-2.368-14.208-2.368c-9.709,0-18.233,11.603-18.233,36.466H368.09
			v-60.382h14.208c0.474,4.736,2.368,7.34,4.026,7.34c2.367,0,7.814-2.367,11.366-4.025c5.92-2.841,13.734-4.499,22.969-4.499
			c7.577,0,13.261,2.605,17.523,4.736c4.262,2.368,7.814,4.736,11.367,4.736c2.84,0,4.735-0.711,6.393-2.131
			c1.422-1.184,2.368-3.079,2.368-5.683h15.155v4.262c0,20.601-10.655,37.177-21.075,56.83
			c-10.181,19.891-20.837,43.097-20.837,77.432V575.579z"/>
		<path fill="#051E42" d="M528.845,471.389c-9.709,0-18.943,2.131-28.178,7.814l2.913-29.609c4.397,1.628,8.371,2.649,11.919,3.06
			c3.546,0.415,6.856,0.551,9.924,0.416c3.635-0.161,7.592-0.789,11.872-1.891c4.276-1.099,8.424-2.619,12.437-4.563
			c4.013-1.941,7.667-4.267,10.964-6.974c3.295-2.708,5.836-5.75,7.623-9.133l-0.74-9.019c-2.356,0.787-5.227,1.512-8.615,2.174
			c-3.386,0.662-6.892,1.217-10.515,1.66c-3.625,0.446-7.196,0.83-10.708,1.156c-3.516,0.326-6.638,0.55-9.365,0.67
			c-3.183,0.141-6.65,0.237-10.405,0.289c-3.756,0.053-7.572,0.052-11.443-0.007c-3.875-0.056-7.637-0.176-11.288-0.356
			c-2.768-0.137-5.338-0.314-7.716-0.534l-0.118-0.145l-0.008,0.133c-0.715-0.067-1.417-0.136-2.096-0.21l-2.632,73.957h14.919
			c6.156-8.288,12.077-10.182,20.127-10.182c17.285,0,20.363,21.075,20.363,32.678c0,17.759-2.841,36.466-22.258,36.466
			c-9.946,0-16.577-8.288-16.577-10.893c0-2.604,1.422-5.209,3.552-6.867c3.79-2.842,6.394-8.051,6.394-13.498
			c0-7.34-4.5-13.734-14.919-13.734c-12.549,0-17.285,8.761-17.285,24.389c0,30.073,25.573,38.361,48.069,38.361
			c22.969,0,44.991-17.286,44.991-54.937C570.047,486.307,551.814,471.389,528.845,471.389z"/>
	</g>
	<g>
		<path fill="#FFFFFF" d="M422.58,568.103h-32.441v-6.156c0-44.28,24.863-89.509,39.545-112.477l-1.184-0.711
			c-4.262,0.474-11.13-2.131-16.103-4.025c-4.972-1.657-9.709-2.368-14.208-2.368c-9.709,0-18.233,11.603-18.233,36.466h-20.838
			v-60.382h14.208c0.474,4.736,2.368,7.34,4.026,7.34c2.367,0,7.814-2.367,11.366-4.025c5.92-2.841,13.734-4.499,22.969-4.499
			c7.577,0,13.261,2.605,17.523,4.736c4.262,2.368,7.814,4.736,11.367,4.736c2.84,0,4.735-0.711,6.393-2.131
			c1.422-1.184,2.368-3.079,2.368-5.683h15.155v4.262c0,20.601-10.655,37.177-21.075,56.83
			c-10.181,19.891-20.837,43.097-20.837,77.432V568.103z"/>
		<path fill="#FFFFFF" d="M519.873,463.913c-9.709,0-18.943,2.131-28.178,7.814l2.913-29.609c4.397,1.628,8.371,2.649,11.919,3.06
			c3.546,0.415,6.856,0.551,9.924,0.416c3.635-0.161,7.592-0.789,11.872-1.891c4.276-1.099,8.424-2.619,12.437-4.563
			c4.013-1.941,7.667-4.267,10.964-6.974c3.295-2.708,5.836-5.75,7.623-9.133l-0.74-9.019c-2.356,0.787-5.227,1.512-8.615,2.174
			c-3.386,0.662-6.892,1.217-10.515,1.66c-3.625,0.446-7.196,0.83-10.708,1.156c-3.516,0.326-6.637,0.55-9.365,0.67
			c-3.183,0.141-6.65,0.237-10.405,0.289c-3.756,0.053-7.572,0.052-11.443-0.007c-3.875-0.056-7.637-0.176-11.288-0.356
			c-2.768-0.137-6.297-0.679-6.297-0.679l-6.274,73.88h14.919c6.156-8.288,12.077-10.182,20.127-10.182
			c17.285,0,20.363,21.075,20.363,32.678c0,17.759-2.84,36.466-22.258,36.466c-9.946,0-16.577-8.288-16.577-10.893
			c0-2.604,1.422-5.209,3.552-6.867c3.79-2.842,6.394-8.051,6.394-13.498c0-7.34-4.5-13.734-14.919-13.734
			c-12.549,0-17.285,8.761-17.285,24.389c0,30.073,25.574,38.361,48.069,38.361c22.969,0,44.991-17.286,44.991-54.937
			C561.075,478.831,542.842,463.913,519.873,463.913z"/>
	</g>
</g>
<g>
	<g>
		<g>
			<g>
				<path fill="#051E42" d="M380.458,658.028c0.003-1.868,0.007-3.736,0.01-5.605c0.002-1.201-0.347-1.544-1.631-1.54
					c-0.914,0.002-1.829,0.005-2.743,0.007c-1.284,0.003-1.635,0.349-1.637,1.553c-0.015,7.84-0.03,15.681-0.046,23.521
					c-0.003,1.205,0.348,1.544,1.632,1.522c0.915-0.015,1.829-0.03,2.744-0.044c1.285-0.02,1.636-0.369,1.638-1.57
					c0.003-1.83,0.007-3.66,0.01-5.49c2.258-0.027,4.515-0.053,6.773-0.079c-0.004,2.052-0.007,4.104-0.011,6.156
					c-0.006,3.534-1.937,5.674-6.375,5.754c-2.277,0.041-4.555,0.083-6.832,0.127c-4.438,0.088-6.36-2.002-6.353-5.574
					c0.017-8.33,0.034-16.66,0.05-24.991c0.007-3.629,1.937-5.701,6.373-5.7c2.276,0,4.552,0,6.829,0
					c4.435,0.001,6.358,2.053,6.352,5.643c-0.004,2.09-0.007,4.181-0.011,6.271C384.973,658.001,382.716,658.014,380.458,658.028z"
					/>
				<path fill="#051E42" d="M409.934,676.75c-0.002,1.657-0.005,3.314-0.007,4.972c-5.996,0.072-11.993,0.154-17.989,0.247
					c0.02-11.965,0.041-23.929,0.061-35.894c5.837,0,11.673,0,17.51,0c-0.002,1.657-0.005,3.314-0.007,4.972
					c-3.58,0.006-7.16,0.013-10.74,0.02c-0.005,3.309-0.01,6.618-0.016,9.927c3.016-0.018,6.033-0.035,9.049-0.05
					c-0.002,1.677-0.005,3.354-0.007,5.031c-3.017,0.021-6.033,0.043-9.05,0.067c-0.006,3.611-0.012,7.223-0.017,10.834
					C402.459,676.831,406.197,676.788,409.934,676.75z"/>
				<path fill="#051E42" d="M430.812,676.575c-0.002,1.648-0.003,3.295-0.005,4.943c-5.51,0.042-11.02,0.093-16.53,0.154
					c0.015-11.866,0.031-23.731,0.046-35.597c2.237,0,4.475,0,6.712,0c-0.012,10.191-0.023,20.382-0.035,30.572
					C424.271,676.62,427.542,676.596,430.812,676.575z"/>
				<path fill="#051E42" d="M452.743,676.473c-0.001,1.642-0.001,3.284-0.002,4.927c-5.998,0.019-11.995,0.049-17.992,0.09
					c0.01-11.805,0.02-23.609,0.03-35.414c5.837,0,11.673,0,17.51,0c-0.001,1.642-0.001,3.284-0.002,4.926
					c-3.58,0.002-7.16,0.004-10.741,0.007c-0.002,3.27-0.004,6.541-0.007,9.811c3.016-0.007,6.033-0.013,9.05-0.017
					c-0.001,1.661-0.002,3.322-0.002,4.983c-3.017,0.006-6.034,0.014-9.051,0.023c-0.002,3.569-0.005,7.138-0.007,10.707
					C445.267,676.497,449.005,676.483,452.743,676.473z"/>
				<path fill="#051E42" d="M471.109,646.075c4.494,0,6.362,2.014,6.363,5.539c0.001,2.537,0.001,5.073,0.002,7.61
					c0,2.183-0.7,3.748-2.451,4.307c1.752,0.56,2.452,1.849,2.453,4.031c0.001,2.76,0.001,5.521,0.002,8.281
					c0.001,3.527-1.868,5.536-6.366,5.532c-4.673-0.003-9.347,0.001-14.02,0.011c0.003-11.771,0.007-23.542,0.01-35.313
					C461.771,646.075,466.44,646.075,471.109,646.075z M470.818,652.285c0-1.174-0.408-1.511-1.693-1.511c-1.771,0-3.541,0-5.312,0
					c0,3.469-0.001,6.938-0.001,10.406c1.771-0.001,3.542-0.001,5.313-0.001c1.284,0,1.693-0.336,1.693-1.51
					C470.818,657.208,470.818,654.746,470.818,652.285z M470.819,667.39c0-1.231-0.409-1.51-1.693-1.51
					c-1.771,0-3.543,0-5.314,0.001c0,3.599-0.001,7.198-0.001,10.797c1.772-0.001,3.544-0.002,5.315-0.002
					c1.285,0,1.694-0.335,1.694-1.51C470.819,672.574,470.819,669.982,470.819,667.39z"/>
				<path fill="#051E42" d="M491.431,667.647c-0.74-0.002-1.479-0.004-2.219-0.006c0.002,4.593,0.005,9.187,0.007,13.78
					c-2.239-0.01-4.479-0.018-6.718-0.024c-0.004-11.774-0.009-23.548-0.013-35.322c4.514,0,9.027,0,13.541,0
					c4.494-0.001,6.363,2.02,6.367,5.557c0.003,3.499,0.006,6.999,0.009,10.498c0.002,2.92-1.28,4.822-4.258,5.372
					c2.047,4.663,4.095,9.332,6.144,14.008c-2.414-0.018-4.829-0.034-7.243-0.048C495.174,676.851,493.302,672.247,491.431,667.647z
					 M489.209,662.88c1.615,0.003,3.231,0.007,4.846,0.011c1.284,0.003,1.634-0.332,1.634-1.51
					c-0.002-2.953-0.004-5.906-0.006-8.859c-0.001-1.177-0.352-1.515-1.636-1.515c-1.615-0.001-3.23-0.002-4.845-0.003
					C489.205,654.963,489.207,658.921,489.209,662.88z"/>
				<path fill="#051E42" d="M523.373,674.295c-2.686-0.024-5.373-0.046-8.059-0.067c-0.426,2.455-0.851,4.91-1.277,7.364
					c-2.239-0.021-4.478-0.041-6.717-0.059c2.461-11.799,4.921-23.617,7.378-35.458c3.015,0,6.031,0,9.046,0
					c2.603,11.873,5.209,23.775,7.816,35.712c-2.258-0.029-4.517-0.057-6.775-0.083
					C524.314,679.233,523.844,676.763,523.373,674.295z M522.433,669.378c-1.078-5.688-2.156-11.37-3.233-17.046
					c-1.005,5.672-2.01,11.34-3.016,17.003C518.267,669.348,520.35,669.362,522.433,669.378z"/>
				<path fill="#051E42" d="M550.588,651.095c-2.16-0.005-4.319-0.01-6.479-0.015c0.018,10.296,0.035,20.591,0.053,30.887
					c-2.239-0.035-4.477-0.068-6.716-0.1c-0.016-10.267-0.033-20.534-0.049-30.801c-2.14-0.004-4.28-0.008-6.421-0.012
					c-0.002-1.66-0.005-3.319-0.007-4.979c6.537,0,13.074,0,19.61,0C550.582,647.748,550.585,649.422,550.588,651.095z"/>
				<path fill="#051E42" d="M572.616,677.414c0.003,1.693,0.007,3.386,0.01,5.079c-5.994-0.128-11.989-0.245-17.984-0.352
					c-0.022-12.022-0.045-24.044-0.067-36.067c5.837,0,11.673,0,17.51,0c0.003,1.692,0.007,3.385,0.01,5.077
					c-3.58-0.011-7.16-0.021-10.74-0.03c0.007,3.346,0.013,6.692,0.019,10.038c3.016,0.024,6.032,0.049,9.048,0.076
					c0.004,1.71,0.007,3.42,0.01,5.13c-3.016-0.035-6.032-0.069-9.048-0.101c0.007,3.652,0.014,7.303,0.021,10.955
					C565.143,677.28,568.88,677.346,572.616,677.414z"/>
				<path fill="#051E42" d="M258.38,763.841c-0.004,5.554,0.972,8.799,4.028,9.102c0.896,0.079,1.793,0.158,2.69,0.237
					c-0.002,2.277-0.004,4.553-0.006,6.83c-7.458,1.056-14.91,2.17-22.355,3.343c0-2.333,0-4.667,0-7
					c1.302-0.399,2.605-0.796,3.907-1.19c2.931-1.041,3.91-4.705,3.912-10.304c0.005-14.038,0.01-28.077,0.014-42.115
					c0.002-5.717-1.466-9.137-3.915-9.443c-1.306-0.105-2.612-0.209-3.918-0.314c0-2.333,0-4.667,0-7
					c9.145-0.627,18.294-1.215,27.447-1.765c2.521,12.045,5.039,23.996,7.555,35.861c2.424-12.33,4.852-24.568,7.281-36.719
					c8.953-0.497,17.909-0.958,26.868-1.383c-0.004,2.177-0.008,4.355-0.013,6.532c-1.309,0.26-2.619,0.522-3.928,0.785
					c-2.455,0.592-3.934,4.023-3.943,9.448c-0.024,13.306-0.049,26.613-0.074,39.919c-0.01,5.31,0.965,8.55,4.029,8.799
					c1.308,0.054,2.615,0.11,3.923,0.166c-0.004,2.177-0.009,4.354-0.013,6.531c-9.484,1.029-18.96,2.152-28.427,3.369
					c0.003-2.234,0.006-4.469,0.01-6.703c0.898-0.306,1.796-0.61,2.695-0.913c3.062-1.071,4.048-4.451,4.056-9.825
					c0.021-13.475,0.043-26.95,0.064-40.424c-0.082,0.006-0.163,0.011-0.245,0.017c-3.913,19.281-7.821,38.78-11.721,58.518
					c-2.651,0.35-5.302,0.708-7.952,1.074c-3.893-18.843-7.792-37.906-11.698-57.209c-0.082,0.007-0.164,0.013-0.245,0.02
					C258.398,736.005,258.389,749.923,258.38,763.841z"/>
				<path fill="#051E42" d="M315.5,701.812c9.86-0.456,19.724-0.868,29.59-1.236c-0.005,2.123-0.009,4.245-0.014,6.368
					c-1.311,0.241-2.621,0.483-3.931,0.726c-2.457,0.553-3.938,3.878-3.949,9.16c-0.017,7.976-0.034,15.952-0.051,23.927
					c-0.037,17.65,1.42,24.242,11.371,23.436c6.388-0.507,10.945-4.37,10.973-18.306c0.021-10.034,0.042-20.069,0.062-30.103
					c0.009-4.205-0.719-8.382-4.159-8.696c-1.269-0.136-2.538-0.272-3.807-0.407c0.004-2.113,0.009-4.227,0.013-6.34
					c7.903-0.279,15.807-0.529,23.712-0.751c-0.004,2.084-0.008,4.168-0.012,6.253c-1.311,0.224-2.622,0.449-3.934,0.676
					c-3.319,0.548-4.065,4.763-4.073,8.95c-0.019,9.364-0.038,18.729-0.057,28.093c-0.041,20.699-6.941,26.768-19.595,27.837
					c-19.409,1.706-24.413-6.992-24.374-26.915c0.018-8.968,0.037-17.937,0.056-26.905c0.011-5.333-1.455-8.552-3.909-8.885
					c-1.309-0.123-2.618-0.247-3.927-0.369C315.492,706.154,315.496,703.983,315.5,701.812z"/>
				<path fill="#051E42" d="M386.643,714.779c0.009-5.125-1.461-8.247-3.918-8.614c-1.311-0.144-2.621-0.288-3.932-0.431
					c0.004-2.08,0.008-4.161,0.012-6.241c9.872-0.267,19.746-0.489,29.622-0.668c-0.003,2.054-0.006,4.109-0.009,6.163
					c-1.312,0.207-2.623,0.415-3.935,0.624c-2.459,0.486-3.94,3.666-3.948,8.763c-0.007,4.374-0.014,8.747-0.02,13.121
					c0.615-0.019,1.354-0.584,1.724-1.138c5.175-6.044,10.348-12.035,15.52-17.985c0.493-0.44,0.985-1.203,0.986-1.742
					c0.001-0.646-1.596-1.266-3.195-1.453c-0.942-0.091-1.885-0.182-2.827-0.273c0.003-2.052,0.005-4.103,0.008-6.155
					c9.876-0.165,19.753-0.287,29.631-0.364c-0.001,2.037-0.003,4.075-0.004,6.112c-1.353,0.191-2.706,0.382-4.058,0.575
					c-1.722,0.232-4.184,2.94-7.631,6.857c-5.13,5.804-10.262,11.642-15.395,17.525c4.994,7.174,9.99,14.332,14.989,21.489
					c3.074,4.444,6.272,8.023,9.474,8.392c1.477,0.151,2.955,0.305,4.433,0.461c-0.001,2.037-0.003,4.074-0.004,6.11
					c-10.51,0.174-21.019,0.462-31.525,0.865c0.003-2.052,0.005-4.103,0.008-6.155c0.903-0.141,1.805-0.281,2.708-0.419
					c0.985-0.25,1.725-1.137,1.727-2.323c0.002-1.078-0.736-2.671-1.841-4.254c-3.153-4.464-6.305-8.932-9.456-13.407
					c-1.766,2.079-3.533,4.165-5.3,6.257c-0.003,1.807-0.006,3.614-0.008,5.421c-0.008,4.99,0.972,8.09,4.048,8.501
					c1.313,0.126,2.625,0.253,3.938,0.382c-0.003,2.054-0.006,4.109-0.009,6.163c-9.93,0.409-19.857,0.921-29.779,1.535
					c0.004-2.08,0.008-4.161,0.012-6.241c1.312-0.26,2.625-0.517,3.937-0.773c2.953-0.711,3.943-3.924,3.952-8.941
					C386.598,739.939,386.621,727.359,386.643,714.779z"/>
				<path fill="#051E42" d="M455.737,713.514c0.002-5.032-1.474-8.132-3.933-8.546c-1.312-0.171-2.624-0.342-3.935-0.511
					c0.001-2.036,0.002-4.072,0.003-6.108c9.878-0.06,19.757-0.077,29.635-0.049c0,2.034,0.001,4.068,0.001,6.102
					c-1.312,0.174-2.624,0.349-3.935,0.525c-2.46,0.424-3.936,3.527-3.935,8.557c0,12.343,0.001,24.686,0.001,37.029
					c0,4.923,0.985,8.026,4.064,8.571c1.314,0.183,2.627,0.368,3.941,0.555c0,2.034,0.001,4.068,0.001,6.102
					c-9.936-0.065-19.873-0.029-29.809,0.11c0.001-2.036,0.002-4.072,0.003-6.108c1.314-0.196,2.628-0.39,3.941-0.583
					c2.956-0.566,3.943-3.676,3.944-8.602C455.729,738.211,455.733,725.862,455.737,713.514z"/>
				<path fill="#051E42" d="M488.988,713.569c-0.003-5.036-1.48-8.155-3.94-8.598c-1.312-0.186-2.624-0.371-3.936-0.556
					c-0.001-2.035-0.001-4.069-0.002-6.103c9.878,0.039,19.756,0.122,29.633,0.249c0.002,2.044,0.004,4.088,0.006,6.133
					c-1.311,0.16-2.623,0.322-3.934,0.484c-2.459,0.398-3.932,3.496-3.928,8.542c0.01,11.456,0.02,22.911,0.03,34.367
					c0.005,6.127,1.732,9.579,10.72,9.835c8.617,0.26,11.691-2.092,11.684-7.285c-0.003-1.981-0.005-3.961-0.008-5.942
					c2.584,0.083,5.168,0.173,7.752,0.267c0.011,7.402,0.022,14.805,0.034,22.207c-17.314-0.778-34.639-1.245-51.966-1.4
					c-0.001-2.035-0.001-4.069-0.002-6.103c1.314-0.167,2.627-0.333,3.941-0.497c2.956-0.501,3.939-3.594,3.936-8.524
					C489.001,738.286,488.995,725.928,488.988,713.569z"/>
				<path fill="#051E42" d="M532,698.904c17.62,0.34,35.235,0.822,52.841,1.444c0.02,9.308,0.039,18.616,0.059,27.924
					c-2.416-0.129-4.833-0.255-7.249-0.376c-0.004-2.067-0.009-4.134-0.013-6.201c-0.014-6.537-1.872-13.811-7.155-13.993
					c-4.669-0.161-5.148,6.31-5.14,10.486c0.023,11.728,0.047,23.456,0.07,35.184c0.01,5.058,1,8.304,4.198,9.068
					c1.271,0.268,2.541,0.538,3.812,0.81c0.004,2.099,0.009,4.197,0.013,6.296c-9.917-0.723-19.839-1.344-29.765-1.863
					c-0.003-2.067-0.007-4.134-0.01-6.201c1.312-0.116,2.624-0.231,3.936-0.345c3.075-0.382,4.052-3.494,4.044-8.518
					c-0.021-11.646-0.042-23.292-0.063-34.937c-0.008-4.148-0.51-10.609-5.182-10.734c-5.285-0.138-7.118,6.877-7.108,13.281
					c0.003,2.027,0.007,4.054,0.01,6.081c-2.419-0.079-4.837-0.154-7.256-0.224C532.027,717.025,532.014,707.965,532,698.904z"/>
				<path fill="#051E42" d="M610.415,739.077c0.013,6.194,0.026,12.387,0.039,18.581c0.009,4.532,1.857,7.977,8.115,8.594
					c8.587,0.865,10.659-4.768,10.646-11.914c-0.004-1.879-0.007-3.758-0.011-5.638c2.575,0.23,5.15,0.466,7.725,0.707
					c0.015,8.728,0.031,17.456,0.046,26.183c-16.054-1.885-32.131-3.5-48.225-4.845c-0.005-2.119-0.009-4.238-0.014-6.357
					c1.31-0.082,2.62-0.163,3.93-0.242c2.948-0.204,3.922-3.484,3.911-8.645c-0.028-12.932-0.055-25.865-0.083-38.797
					c-0.011-5.272-1.492-8.59-3.949-9.14c-1.31-0.242-2.621-0.483-3.932-0.722c-0.004-2.119-0.009-4.238-0.013-6.357
					c16.09,0.587,32.173,1.292,48.246,2.115c0.015,8.419,0.03,16.838,0.045,25.258c-2.575-0.191-5.151-0.377-7.727-0.559
					c-0.003-1.611-0.006-3.222-0.009-4.833c-0.016-8.642-4.933-13.398-10.702-13.685c-6.26-0.316-8.096,2.318-8.085,7.526
					c0.01,4.909,0.021,9.819,0.031,14.728c4.051,0.268,8.101,0.548,12.15,0.84c0.005,2.708,0.011,5.415,0.016,8.123
					C618.515,739.677,614.465,739.37,610.415,739.077z"/>
				<path fill="#051E42" d="M693.471,755.476c0.118,15.576-9.884,27.088-25.288,24.838c-15.285-2.2-25.598-13.883-25.502-29.662
					c0.029-7.411,0.057-14.824,0.086-22.237c-0.025-13.684,10.015-25.748,25.34-24.904c15.326,0.842,25.244,13.938,25.364,29.369
					C693.471,740.413,693.471,747.945,693.471,755.476z M659.469,755.328c0.01,8.641,1.368,16.364,8.707,17.342
					c7.215,0.975,8.675-7.134,8.67-15.342c-0.007-10.689-0.015-21.378-0.022-32.067c-0.005-6.755-1.478-13.504-8.709-13.985
					c-7.354-0.485-8.694,5.939-8.686,12.562C659.442,734.334,659.455,744.831,659.469,755.328z"/>
			</g>
		</g>
	</g>
	
		<rect x="328.74" y="654.574" transform="matrix(-0.7071 0.7071 -0.7071 -0.7071 1046.9419 894.4563)" fill="#C14734" width="18.966" height="18.966"/>
	
		<rect x="588.843" y="654.574" transform="matrix(-0.7071 0.7071 -0.7071 -0.7071 1490.9648 710.5359)" fill="#C14734" width="18.966" height="18.966"/>
</g>
<path fill="#DBDBDB" stroke="#FFFFFF" stroke-width="15" stroke-miterlimit="10" d="M1349.85,499.042
	c4.717-15.598,9.433-31.016,14.15-46.24c-24.223-8.975-48.446-12.82-72.669-13.5V255.444L1169.38,221l-121.95,34.444v210.565
	c-21.81-1.199-43.62-5.126-65.43-13.207c4.717,17.498,9.433,34.802,14.15,51.926c-4.717,15.639-9.433,31.098-14.15,46.363
	c21.81,8.081,43.62,12.003,65.43,13.201v11.264L1169.38,610l121.95-34.444v-37.972c24.223,0.68,48.446,4.532,72.669,13.507
	C1359.283,533.552,1354.567,516.207,1349.85,499.042z"/>
<g>
	<polygon fill="#051E42" points="1169.38,221 1047.43,255.444 1047.43,516.556 1169.38,551 1291.331,516.556 1291.331,255.444 	"/>
	<g>
		<polygon fill="#FFFFFF" points="1201.451,327.263 1208.667,320.024 1209.378,319.308 1202.823,317.58 1191.612,328.831 
			1191.612,323.529 1197.915,316.286 1189.965,314.188 1181.25,327.216 1181.25,320.977 1184.673,313.718 1172.278,313.718 
			1171.313,322.347 1171.283,322.416 1169.36,326.653 1169.343,326.616 1169.323,326.656 1167.432,322.416 1167.4,322.347 
			1166.436,313.718 1154.041,313.718 1157.464,320.868 1157.464,327.216 1148.75,314.188 1140.8,316.286 1147.103,323.529 
			1147.103,328.831 1135.89,317.58 1129.372,319.297 1130.094,320.024 1137.309,327.263 1137.309,328.856 1137.309,418.805 
			1169.034,414.069 1201.451,418.805 1201.451,328.856 		"/>
		<path fill="#C14734" d="M1149.811,308.888h0.078h38.936h0.078l0.075,0.02l23.053,6.107v-20.113l-22.127-5.441l-2.354-0.579
			l-1.965,0.006l-10.589,0.032v-5.744c0,0-0.013-0.058-0.02-0.087c0.007-0.728-0.148-2.059-1.287-3.036
			c-0.76-0.652-1.998-0.87-2.828-0.94l-0.002-0.009h-1.464h-0.029h-1.464l-0.002,0.009c-0.83,0.07-2.068,0.289-2.827,0.94
			c-1.14,0.977-1.296,2.308-1.289,3.036c-0.006,0.029-0.018,0.057-0.018,0.057v5.774l-10.59-0.032v-17.681h16.19h0.015h0.001h0.013
			h16.19v0.002l4.319-0.002h0.031l3.756-3.247c0,0-16.681-5.203-19.67-7.421c-0.376-0.279-0.666-0.632-0.901-1.008
			c0.852-0.138,1.385-0.322,1.385-0.525c0-0.243-0.756-0.458-1.916-0.599c-0.175-0.497-0.288-0.967-0.374-1.32
			c0.916-0.175,1.506-0.433,1.506-0.725c0-0.333-0.765-0.627-1.923-0.8c-0.071-0.262-0.141-0.528-0.206-0.784
			c1.09-0.671,1.813-1.82,1.813-3.128c0-1.867-1.47-3.403-3.39-3.688v-1.48c0,0-0.176-3.669-0.374-6.167
			c-0.083-1.051-0.169-1.913-0.248-2.181v-0.093c0,0-0.01,0.035-0.015,0.048l-0.01-0.041l-0.005,0.085
			c-0.078,0.268-0.164,1.129-0.248,2.179c-0.197,2.5-0.372,6.169-0.372,6.169v1.48c-1.92,0.285-3.39,1.821-3.39,3.688
			c0,1.308,0.721,2.457,1.813,3.128c-0.066,0.256-0.137,0.522-0.206,0.784c-1.16,0.172-1.923,0.467-1.923,0.8
			c0,0.291,0.591,0.55,1.505,0.725c-0.087,0.353-0.198,0.823-0.373,1.32c-1.159,0.141-1.916,0.356-1.916,0.599
			c0,0.204,0.532,0.387,1.385,0.525c-0.234,0.376-0.525,0.729-0.901,1.008c-2.988,2.218-19.671,7.421-19.671,7.421l3.757,3.247h0.03
			v18.254l-22.126,5.441v20.1l23.006-6.094L1149.811,308.888z"/>
	</g>
	<g>
		<polygon fill="#051E42" points="1180.57,335.069 1169.397,335.069 1169.363,335.069 1158.191,335.069 1158.191,349.696 
			1169.363,349.696 1169.397,349.696 1180.57,349.696 		"/>
		<polygon fill="#051E42" points="1180.57,356.024 1169.397,356.024 1169.363,356.024 1158.191,356.024 1158.191,370.874 
			1169.363,370.874 1169.397,370.874 1180.57,370.874 		"/>
	</g>
	<g>
		<defs>
			<polygon id="SVGID_00000177472529447105539850000015318461090252604058_" points="1169.38,221 1047.43,255.444 1047.43,575.556 
				1169.38,610 1291.331,575.556 1291.331,255.444 			"/>
		</defs>
		<clipPath id="SVGID_00000044159089507952519460000010432358359693163402_">
			<use xlink:href="#SVGID_00000177472529447105539850000015318461090252604058_"  overflow="visible"/>
		</clipPath>
		<path clip-path="url(#SVGID_00000044159089507952519460000010432358359693163402_)" fill="#5BA28F" d="M1340.456,401.978
			c-9.993,0-18.865-4.511-24.438-11.483c-5.573,6.972-14.444,11.483-24.438,11.483s-18.865-4.511-24.438-11.483
			c-5.573,6.972-14.444,11.483-24.438,11.483c-9.993,0-18.865-4.511-24.438-11.483c-5.573,6.972-14.444,11.483-24.438,11.483
			c-9.993,0-18.865-4.511-24.438-11.483c-5.573,6.972-14.444,11.483-24.438,11.483s-18.865-4.511-24.438-11.483
			c-5.573,6.972-14.444,11.483-24.438,11.483s-18.865-4.511-24.438-11.483c-5.573,6.972-14.444,11.483-24.438,11.483
			s-18.865-4.511-24.438-11.483c-5.573,6.972-14.444,11.483-24.438,11.483c-9.993,0-18.865-4.511-24.438-11.483
			c-5.573,6.972-14.444,11.483-24.438,11.483c-9.993,0-18.865-4.511-24.438-11.483v174.609l222.324,75.23l214.839-75.23V393.449
			C1356.641,398.714,1348.955,401.978,1340.456,401.978z"/>
	</g>
</g>
<g>
	<g>
		<g>
			<path fill="#C14734" d="M982,452.801c63.538,23.542,127.076,11.842,190.614,0.071c63.795-11.818,127.59-23.708,191.386-0.071
				c-4.717,15.224-9.433,30.642-14.15,46.24c4.717,17.165,9.433,34.51,14.15,52.049c-64.547-23.916-129.094-11.462-193.641,0.489
				c-62.786,11.625-125.573,22.774-188.359-0.489c4.717-15.265,9.433-30.724,14.15-46.363
				C991.433,487.604,986.717,470.3,982,452.801z"/>
		</g>
		<g>
			<path fill="#FFFFFF" d="M1031.959,525.21c0,1.321,0,2.643,0,3.964c-3.523-0.415-7.046-0.91-10.569-1.491
				c0-9.474,0-18.949,0-28.423c3.432,0.566,6.863,1.05,10.295,1.459c0,1.321,0,2.643,0,3.964c-2.105-0.25-4.21-0.529-6.314-0.838
				c0,2.628,0,5.255,0,7.883c1.773,0.26,3.546,0.499,5.319,0.718c0,1.336,0,2.673,0,4.009c-1.773-0.219-3.546-0.458-5.319-0.718
				c0,2.868,0,5.736,0,8.604C1027.566,524.662,1029.763,524.952,1031.959,525.21z"/>
			<path fill="#FFFFFF" d="M1042.301,518.907c0-0.946-0.206-1.231-0.961-1.29c-0.926-0.073-1.853-0.151-2.779-0.235
				c-2.574-0.236-3.535-2.013-3.535-4.849c0-2.327,0-4.655,0-6.982c0.001-2.84,1.064-4.339,3.706-4.1
				c1.258,0.112,2.516,0.215,3.774,0.309c2.61,0.19,3.708,1.867,3.707,4.707c0,1.321,0,2.643,0,3.964
				c-1.327-0.079-2.654-0.168-3.98-0.268c0-1.081,0-2.162,0-3.243c0-0.946-0.206-1.231-0.961-1.29
				c-0.435-0.034-0.87-0.07-1.305-0.107c-0.755-0.064-0.995,0.184-0.995,1.13c0,1.907,0,3.814,0,5.721
				c0,0.945,0.24,1.238,0.995,1.302c0.904,0.076,1.807,0.148,2.711,0.214c2.574,0.186,3.604,1.813,3.604,4.653
				c0,2.477,0,4.955,0,7.432c0,2.835-1.097,4.402-3.74,4.21c-1.236-0.091-2.471-0.192-3.707-0.302
				c-2.642-0.238-3.74-1.986-3.74-4.821c0-1.306,0-2.612,0-3.918c1.316,0.137,2.631,0.264,3.947,0.38c0,1.066,0,2.132,0,3.198
				c-0.001,0.945,0.242,1.238,0.994,1.302c0.435,0.037,0.87,0.072,1.305,0.106c0.755,0.059,0.961-0.197,0.961-1.142
				C1042.301,522.961,1042.301,520.934,1042.301,518.907z"/>
			<path fill="#FFFFFF" d="M1060.648,506.446c-1.27-0.009-2.539-0.026-3.809-0.052c0,8.153,0,16.306,0,24.459
				c-1.316-0.027-2.631-0.063-3.947-0.108c0-8.153,0-16.306,0-24.459c-1.258-0.043-2.516-0.096-3.774-0.157c0-1.321,0-2.643,0-3.964
				c3.843,0.187,7.687,0.29,11.53,0.317C1060.648,503.803,1060.648,505.125,1060.648,506.446z"/>
			<path fill="#FFFFFF" d="M1061.509,524.829c1.396,0.006,2.791,0.002,4.187-0.012c0,2.027,0,4.054,0,6.081
				c-1.396,0.014-2.791,0.018-4.187,0.012C1061.509,528.883,1061.509,526.856,1061.509,524.829z"/>
			<path fill="#FFFFFF" d="M1292.051,503.806c-1.316-0.04-2.632-0.071-3.947-0.093c0-8.153,0-16.306,0-24.459
				c-0.892-0.015-1.784-0.025-2.676-0.032c0-1.321,0-2.643,0-3.964c2.208,0.016,4.415,0.057,6.623,0.125
				C1292.051,484.858,1292.051,494.332,1292.051,503.806z"/>
			<path fill="#FFFFFF" d="M1303.246,475.961c2.643,0.196,3.741,1.926,3.74,4.761c0,6.501,0,13.003,0,19.504
				c0,2.841-1.098,4.355-3.74,4.158c-1.247-0.091-2.493-0.173-3.74-0.246c-2.643-0.152-3.74-1.811-3.74-4.652
				c0-1.426,0-2.853,0-4.279c1.292,0.057,2.585,0.124,3.877,0.2c0,1.186,0,2.372,0,3.558c0,0.946,0.207,1.228,0.961,1.275
				c0.515,0.032,1.03,0.066,1.545,0.102c0.755,0.052,0.961-0.202,0.961-1.148c0-2.087,0-4.174,0-6.261
				c-1.247-0.091-2.493-0.172-3.74-0.244c-2.642-0.15-3.741-1.809-3.741-4.649c0-2.688,0-5.375,0-8.063
				c0-2.835,1.099-4.42,3.741-4.269C1300.661,475.782,1301.954,475.867,1303.246,475.961z M1303.109,489.195
				c0-2.688,0-5.375,0-8.063c0-0.945-0.206-1.232-0.961-1.284c-0.561-0.039-1.121-0.075-1.682-0.11
				c-0.755-0.047-0.961,0.213-0.961,1.158c0,2.282,0,4.564,0,6.847c0,0.946,0.206,1.227,0.961,1.274
				C1301.348,489.071,1302.229,489.13,1303.109,489.195z"/>
			<path fill="#FFFFFF" d="M1323.715,501.262c-0.686-0.11-1.372-0.217-2.059-0.321c0,1.832,0,3.663,0,5.495
				c-1.247-0.189-2.493-0.367-3.74-0.535c0-1.832,0-3.663,0-5.495c-2.62-0.353-5.24-0.66-7.859-0.925c0-1.471,0-2.943,0-4.415
				c2.265-5.943,4.53-11.853,6.795-17.729c1.316,0.171,2.632,0.353,3.947,0.548c-2.38,5.955-4.759,11.948-7.139,17.978
				c1.419,0.165,2.837,0.343,4.256,0.534c0-1.832,0-3.663,0-5.495c1.247,0.168,2.493,0.346,3.74,0.535c0,1.832,0,3.663,0,5.495
				c0.686,0.104,1.372,0.211,2.059,0.321C1323.715,498.589,1323.715,499.925,1323.715,501.262z"/>
			<path fill="#FFFFFF" d="M1335.887,483.704c-2.013,8.013-4.026,16.055-6.039,24.127c-1.35-0.256-2.701-0.499-4.051-0.729
				c1.956-7.744,3.913-15.462,5.869-23.152c-2.22-0.44-4.439-0.844-6.658-1.214c0-1.396,0-2.793,0-4.189
				c3.626,0.605,7.253,1.301,10.879,2.095C1335.887,481.662,1335.887,482.683,1335.887,483.704z"/>
		</g>
	</g>
</g>
<g>
	<g>
		<path fill="#051E42" d="M1137.302,575.579h-32.441v-6.156c0-44.281,24.863-89.509,39.545-112.477l-1.184-0.711
			c-4.262,0.474-11.13-2.131-16.103-4.025c-4.972-1.657-9.708-2.368-14.208-2.368c-9.708,0-18.233,11.603-18.233,36.466h-20.838
			v-60.382h14.208c0.474,4.736,2.368,7.34,4.026,7.34c2.367,0,7.814-2.367,11.366-4.025c5.92-2.841,13.734-4.499,22.969-4.499
			c7.577,0,13.261,2.605,17.523,4.736c4.262,2.368,7.814,4.736,11.367,4.736c2.84,0,4.735-0.711,6.393-2.131
			c1.422-1.184,2.368-3.079,2.368-5.683h15.155v4.262c0,20.601-10.655,37.177-21.075,56.83
			c-10.181,19.891-20.837,43.097-20.837,77.432V575.579z"/>
		<path fill="#051E42" d="M1234.595,471.389c-9.708,0-18.943,2.131-28.178,7.814l2.913-29.609c4.397,1.628,8.371,2.649,11.919,3.06
			c3.547,0.415,6.856,0.551,9.924,0.416c3.635-0.161,7.592-0.789,11.872-1.891c4.276-1.099,8.424-2.619,12.437-4.563
			c4.013-1.941,7.667-4.267,10.964-6.974c3.295-2.708,5.836-5.75,7.623-9.133l-0.74-9.019c-2.356,0.787-5.227,1.512-8.615,2.174
			c-3.386,0.662-6.892,1.217-10.515,1.66c-3.625,0.446-7.196,0.83-10.708,1.156c-3.516,0.326-6.637,0.55-9.365,0.67
			c-3.183,0.141-6.65,0.237-10.405,0.289c-3.756,0.053-7.572,0.052-11.443-0.007c-3.875-0.056-7.637-0.176-11.288-0.356
			c-2.768-0.137-5.338-0.314-7.716-0.534l-0.119-0.145l-0.008,0.133c-0.715-0.067-1.417-0.136-2.096-0.21l-2.632,73.957h14.919
			c6.156-8.288,12.077-10.182,20.127-10.182c17.285,0,20.363,21.075,20.363,32.678c0,17.759-2.84,36.466-22.258,36.466
			c-9.946,0-16.577-8.288-16.577-10.893c0-2.604,1.422-5.209,3.552-6.867c3.79-2.842,6.394-8.051,6.394-13.498
			c0-7.34-4.5-13.734-14.919-13.734c-12.549,0-17.285,8.761-17.285,24.389c0,30.073,25.573,38.361,48.069,38.361
			c22.969,0,44.991-17.286,44.991-54.937C1275.797,486.307,1257.564,471.389,1234.595,471.389z"/>
	</g>
	<g>
		<path fill="#FFFFFF" d="M1128.331,568.103h-32.441v-6.156c0-44.28,24.863-89.509,39.545-112.477l-1.184-0.711
			c-4.262,0.474-11.13-2.131-16.103-4.025c-4.972-1.657-9.708-2.368-14.208-2.368c-9.708,0-18.233,11.603-18.233,36.466h-20.838
			v-60.382h14.208c0.474,4.736,2.368,7.34,4.026,7.34c2.367,0,7.814-2.367,11.366-4.025c5.92-2.841,13.734-4.499,22.969-4.499
			c7.577,0,13.261,2.605,17.523,4.736c4.262,2.368,7.814,4.736,11.366,4.736c2.84,0,4.735-0.711,6.393-2.131
			c1.422-1.184,2.368-3.079,2.368-5.683h15.155v4.262c0,20.601-10.655,37.177-21.075,56.83
			c-10.181,19.891-20.837,43.097-20.837,77.432V568.103z"/>
		<path fill="#FFFFFF" d="M1225.624,463.913c-9.709,0-18.943,2.131-28.178,7.814l2.913-29.609c4.397,1.628,8.371,2.649,11.919,3.06
			c3.547,0.415,6.856,0.551,9.924,0.416c3.635-0.161,7.592-0.789,11.872-1.891c4.276-1.099,8.424-2.619,12.437-4.563
			c4.013-1.941,7.667-4.267,10.964-6.974c3.295-2.708,5.836-5.75,7.624-9.133l-0.74-9.019c-2.356,0.787-5.227,1.512-8.615,2.174
			c-3.386,0.662-6.892,1.217-10.515,1.66c-3.625,0.446-7.196,0.83-10.708,1.156c-3.516,0.326-6.637,0.55-9.365,0.67
			c-3.183,0.141-6.65,0.237-10.405,0.289c-3.756,0.053-7.572,0.052-11.443-0.007c-3.875-0.056-7.637-0.176-11.288-0.356
			c-2.768-0.137-6.297-0.679-6.297-0.679l-6.274,73.88h14.919c6.156-8.288,12.077-10.182,20.127-10.182
			c17.285,0,20.363,21.075,20.363,32.678c0,17.759-2.841,36.466-22.258,36.466c-9.946,0-16.577-8.288-16.577-10.893
			c0-2.604,1.422-5.209,3.552-6.867c3.79-2.842,6.394-8.051,6.394-13.498c0-7.34-4.5-13.734-14.919-13.734
			c-12.549,0-17.285,8.761-17.285,24.389c0,30.073,25.573,38.361,48.069,38.361c22.969,0,44.991-17.286,44.991-54.937
			C1266.826,478.831,1248.593,463.913,1225.624,463.913z"/>
	</g>
</g>
<g>
	<g>
		<g>
			<g>
				<path fill="#FFFFFF" d="M1086.209,658.028c0.004-1.868,0.007-3.736,0.011-5.605c0.004-1.201-0.348-1.544-1.631-1.54
					c-0.915,0.002-1.829,0.005-2.744,0.007c-1.283,0.003-1.634,0.349-1.637,1.553c-0.015,7.84-0.03,15.681-0.046,23.521
					c-0.003,1.206,0.348,1.543,1.631,1.522c0.915-0.015,1.83-0.03,2.745-0.044c1.283-0.02,1.635-0.369,1.637-1.57
					c0.003-1.83,0.007-3.66,0.01-5.49c2.258-0.027,4.515-0.053,6.773-0.079c-0.004,2.052-0.007,4.104-0.011,6.156
					c-0.006,3.534-1.937,5.674-6.375,5.754c-2.277,0.041-4.555,0.083-6.832,0.127c-4.439,0.088-6.361-2.002-6.353-5.574
					c0.017-8.33,0.034-16.66,0.05-24.991c0.007-3.629,1.938-5.701,6.374-5.7c2.276,0,4.553,0,6.829,0
					c4.436,0.001,6.358,2.053,6.351,5.643c-0.004,2.09-0.007,4.181-0.011,6.271C1090.724,658.001,1088.466,658.014,1086.209,658.028
					z"/>
				<path fill="#FFFFFF" d="M1115.685,676.75c-0.002,1.657-0.005,3.314-0.007,4.972c-5.997,0.072-11.993,0.154-17.989,0.247
					c0.021-11.965,0.041-23.929,0.061-35.894c5.837,0,11.673,0,17.51,0c-0.002,1.657-0.005,3.314-0.007,4.972
					c-3.58,0.006-7.16,0.013-10.74,0.02c-0.005,3.309-0.01,6.618-0.016,9.927c3.016-0.018,6.033-0.035,9.049-0.05
					c-0.002,1.677-0.005,3.354-0.007,5.031c-3.017,0.021-6.034,0.043-9.05,0.067c-0.006,3.611-0.012,7.223-0.017,10.834
					C1108.21,676.831,1111.947,676.788,1115.685,676.75z"/>
				<path fill="#FFFFFF" d="M1136.563,676.575c-0.002,1.648-0.003,3.295-0.005,4.943c-5.51,0.042-11.021,0.093-16.531,0.154
					c0.015-11.866,0.031-23.731,0.046-35.597c2.237,0,4.475,0,6.712,0c-0.012,10.191-0.023,20.382-0.035,30.572
					C1130.022,676.62,1133.292,676.596,1136.563,676.575z"/>
				<path fill="#FFFFFF" d="M1158.494,676.473c-0.001,1.642-0.001,3.284-0.002,4.927c-5.998,0.019-11.995,0.049-17.992,0.09
					c0.01-11.805,0.02-23.609,0.03-35.414c5.837,0,11.673,0,17.51,0c-0.001,1.642-0.001,3.284-0.002,4.926
					c-3.58,0.002-7.161,0.004-10.741,0.007c-0.002,3.27-0.005,6.541-0.007,9.811c3.016-0.007,6.033-0.012,9.049-0.017
					c-0.001,1.661-0.002,3.322-0.002,4.983c-3.017,0.006-6.034,0.014-9.05,0.023c-0.002,3.569-0.005,7.138-0.007,10.707
					C1151.017,676.497,1154.756,676.483,1158.494,676.473z"/>
				<path fill="#FFFFFF" d="M1176.859,646.075c4.494,0,6.363,2.014,6.364,5.539c0.001,2.537,0.001,5.073,0.002,7.61
					c0,2.183-0.7,3.748-2.451,4.307c1.752,0.56,2.453,1.849,2.453,4.031c0.001,2.76,0.001,5.521,0.002,8.281
					c0.001,3.527-1.868,5.536-6.367,5.532c-4.673-0.003-9.346,0.001-14.02,0.011c0.003-11.771,0.007-23.542,0.01-35.313
					C1167.521,646.075,1172.19,646.075,1176.859,646.075z M1176.569,652.285c-0.001-1.174-0.408-1.511-1.694-1.511
					c-1.77,0-3.541,0-5.311,0c0,3.469-0.001,6.938-0.001,10.406c1.771-0.001,3.542-0.001,5.313-0.001
					c1.285,0,1.694-0.336,1.694-1.51C1176.569,657.208,1176.569,654.746,1176.569,652.285z M1176.57,667.39
					c0-1.231-0.408-1.51-1.694-1.51c-1.771,0-3.542,0-5.313,0.001c0,3.599-0.001,7.198-0.001,10.797
					c1.772-0.001,3.543-0.002,5.315-0.002c1.286,0,1.696-0.335,1.695-1.51C1176.57,672.574,1176.57,669.982,1176.57,667.39z"/>
				<path fill="#FFFFFF" d="M1197.181,667.647c-0.74-0.002-1.479-0.004-2.218-0.006c0.002,4.593,0.005,9.187,0.007,13.78
					c-2.24-0.01-4.479-0.018-6.719-0.024c-0.004-11.774-0.009-23.548-0.013-35.322c4.514,0,9.027,0,13.541,0
					c4.495-0.001,6.363,2.02,6.366,5.557c0.003,3.499,0.006,6.999,0.009,10.498c0.003,2.92-1.281,4.822-4.257,5.372
					c2.047,4.663,4.095,9.332,6.144,14.008c-2.414-0.018-4.829-0.034-7.244-0.048
					C1200.924,676.851,1199.052,672.247,1197.181,667.647z M1194.96,662.88c1.615,0.003,3.23,0.007,4.846,0.011
					c1.284,0.003,1.635-0.332,1.634-1.51c-0.002-2.953-0.004-5.906-0.006-8.859c-0.001-1.177-0.352-1.515-1.636-1.515
					c-1.615-0.001-3.23-0.002-4.844-0.003C1194.956,654.963,1194.958,658.921,1194.96,662.88z"/>
				<path fill="#FFFFFF" d="M1229.123,674.295c-2.686-0.024-5.372-0.046-8.059-0.067c-0.425,2.455-0.851,4.91-1.277,7.364
					c-2.239-0.021-4.478-0.041-6.717-0.059c2.462-11.799,4.921-23.617,7.379-35.458c3.015,0,6.031,0,9.046,0
					c2.603,11.873,5.209,23.775,7.816,35.712c-2.258-0.029-4.517-0.057-6.775-0.083
					C1230.065,679.233,1229.594,676.763,1229.123,674.295z M1228.183,669.378c-1.078-5.688-2.155-11.37-3.232-17.046
					c-1.005,5.673-2.01,11.34-3.016,17.003C1224.018,669.348,1226.1,669.362,1228.183,669.378z"/>
				<path fill="#FFFFFF" d="M1256.339,651.095c-2.16-0.005-4.319-0.01-6.479-0.015c0.018,10.296,0.035,20.591,0.053,30.887
					c-2.239-0.035-4.478-0.068-6.717-0.1c-0.016-10.267-0.033-20.534-0.049-30.801c-2.14-0.004-4.28-0.008-6.42-0.012
					c-0.002-1.66-0.005-3.319-0.007-4.979c6.537,0,13.074,0,19.611,0C1256.333,647.748,1256.336,649.422,1256.339,651.095z"/>
				<path fill="#FFFFFF" d="M1278.367,677.414c0.003,1.693,0.007,3.386,0.01,5.079c-5.994-0.128-11.989-0.245-17.984-0.352
					c-0.022-12.022-0.045-24.044-0.067-36.067c5.837,0,11.673,0,17.51,0c0.004,1.692,0.007,3.385,0.01,5.077
					c-3.58-0.011-7.16-0.021-10.74-0.03c0.006,3.346,0.013,6.692,0.02,10.038c3.016,0.024,6.031,0.049,9.047,0.076
					c0.003,1.71,0.007,3.42,0.01,5.13c-3.016-0.035-6.032-0.069-9.048-0.101c0.007,3.652,0.014,7.303,0.021,10.955
					C1270.894,677.28,1274.631,677.346,1278.367,677.414z"/>
				<path fill="#FFFFFF" d="M964.131,763.841c-0.004,5.554,0.972,8.799,4.028,9.102c0.896,0.079,1.793,0.158,2.689,0.237
					c-0.002,2.276-0.004,4.553-0.006,6.83c-7.458,1.056-14.909,2.17-22.354,3.343c0-2.333,0-4.667,0-7
					c1.302-0.399,2.605-0.796,3.907-1.19c2.931-1.041,3.91-4.705,3.912-10.304c0.005-14.038,0.01-28.077,0.014-42.115
					c0.002-5.717-1.466-9.137-3.915-9.443c-1.306-0.105-2.612-0.209-3.918-0.314c0-2.333,0-4.667,0-7
					c9.145-0.627,18.294-1.215,27.447-1.765c2.521,12.045,5.039,23.996,7.555,35.861c2.424-12.33,4.851-24.568,7.281-36.719
					c8.953-0.497,17.909-0.958,26.868-1.383c-0.004,2.177-0.008,4.355-0.013,6.532c-1.309,0.26-2.619,0.522-3.928,0.785
					c-2.455,0.592-3.933,4.023-3.943,9.448c-0.024,13.306-0.049,26.613-0.074,39.919c-0.01,5.31,0.965,8.55,4.029,8.799
					c1.308,0.054,2.615,0.11,3.923,0.166c-0.004,2.177-0.008,4.354-0.013,6.531c-9.484,1.029-18.96,2.152-28.427,3.369
					c0.003-2.234,0.006-4.469,0.01-6.703c0.898-0.306,1.797-0.61,2.695-0.913c3.062-1.07,4.048-4.451,4.056-9.825
					c0.021-13.475,0.043-26.95,0.064-40.424c-0.082,0.006-0.163,0.011-0.245,0.017c-3.913,19.28-7.82,38.779-11.72,58.518
					c-2.652,0.35-5.303,0.708-7.953,1.074c-3.893-18.843-7.792-37.906-11.698-57.209c-0.082,0.007-0.163,0.013-0.245,0.02
					C964.149,736.005,964.14,749.923,964.131,763.841z"/>
				<path fill="#FFFFFF" d="M1021.251,701.812c9.86-0.456,19.723-0.868,29.59-1.235c-0.004,2.123-0.009,4.245-0.014,6.368
					c-1.311,0.241-2.621,0.483-3.931,0.726c-2.456,0.553-3.938,3.878-3.949,9.16c-0.017,7.976-0.034,15.951-0.051,23.927
					c-0.036,17.65,1.421,24.241,11.372,23.436c6.388-0.507,10.945-4.37,10.973-18.306c0.021-10.034,0.042-20.069,0.062-30.103
					c0.009-4.205-0.721-8.382-4.158-8.696c-1.269-0.136-2.539-0.272-3.808-0.407c0.005-2.113,0.009-4.227,0.013-6.34
					c7.903-0.279,15.807-0.529,23.712-0.751c-0.004,2.084-0.008,4.168-0.012,6.253c-1.311,0.224-2.623,0.449-3.934,0.676
					c-3.319,0.548-4.065,4.763-4.073,8.95c-0.019,9.364-0.038,18.729-0.057,28.093c-0.041,20.699-6.941,26.768-19.595,27.837
					c-19.409,1.707-24.413-6.992-24.374-26.915c0.019-8.968,0.037-17.937,0.056-26.905c0.011-5.333-1.456-8.552-3.909-8.885
					c-1.309-0.123-2.618-0.247-3.927-0.369C1021.242,706.154,1021.247,703.983,1021.251,701.812z"/>
				<path fill="#FFFFFF" d="M1092.394,714.779c0.01-5.125-1.46-8.247-3.917-8.614c-1.311-0.144-2.621-0.288-3.932-0.431
					c0.004-2.08,0.008-4.161,0.012-6.241c9.872-0.267,19.746-0.489,29.621-0.668c-0.003,2.054-0.006,4.109-0.009,6.163
					c-1.312,0.207-2.624,0.415-3.935,0.624c-2.459,0.485-3.939,3.665-3.948,8.763c-0.007,4.374-0.014,8.747-0.021,13.121
					c0.615-0.019,1.355-0.584,1.724-1.138c5.175-6.044,10.349-12.035,15.521-17.985c0.491-0.44,0.985-1.203,0.986-1.742
					c0.002-0.646-1.597-1.266-3.196-1.453c-0.942-0.091-1.885-0.182-2.827-0.273c0.003-2.052,0.005-4.103,0.008-6.155
					c9.876-0.165,19.753-0.287,29.631-0.364c-0.001,2.037-0.003,4.075-0.004,6.112c-1.353,0.191-2.706,0.382-4.059,0.575
					c-1.723,0.232-4.184,2.94-7.631,6.857c-5.13,5.804-10.262,11.642-15.395,17.525c4.994,7.174,9.99,14.332,14.99,21.489
					c3.074,4.444,6.272,8.023,9.474,8.392c1.478,0.151,2.955,0.305,4.433,0.461c-0.001,2.037-0.003,4.074-0.004,6.11
					c-10.51,0.174-21.019,0.462-31.525,0.865c0.003-2.052,0.005-4.103,0.008-6.155c0.903-0.141,1.806-0.281,2.708-0.419
					c0.985-0.25,1.725-1.137,1.727-2.323c0.002-1.078-0.735-2.671-1.842-4.254c-3.153-4.464-6.305-8.932-9.456-13.407
					c-1.767,2.079-3.533,4.165-5.3,6.257c-0.003,1.807-0.006,3.614-0.009,5.421c-0.007,4.989,0.972,8.09,4.048,8.501
					c1.313,0.126,2.625,0.253,3.938,0.382c-0.003,2.054-0.006,4.109-0.009,6.163c-9.93,0.409-19.857,0.921-29.779,1.535
					c0.004-2.08,0.008-4.161,0.012-6.241c1.312-0.26,2.625-0.517,3.937-0.773c2.953-0.711,3.943-3.924,3.952-8.941
					C1092.349,739.939,1092.371,727.359,1092.394,714.779z"/>
				<path fill="#FFFFFF" d="M1161.487,713.514c0.002-5.032-1.474-8.132-3.933-8.546c-1.312-0.171-2.624-0.342-3.935-0.511
					c0.001-2.036,0.002-4.072,0.003-6.108c9.878-0.06,19.756-0.077,29.634-0.049c0,2.034,0.001,4.068,0.001,6.102
					c-1.312,0.174-2.624,0.349-3.935,0.525c-2.459,0.424-3.935,3.527-3.935,8.557c0,12.343,0.001,24.686,0.001,37.029
					c0,4.924,0.986,8.026,4.065,8.571c1.314,0.183,2.628,0.368,3.941,0.555c0,2.034,0.001,4.068,0.001,6.102
					c-9.936-0.065-19.873-0.029-29.809,0.11c0.001-2.036,0.002-4.072,0.003-6.108c1.314-0.196,2.627-0.39,3.941-0.583
					c2.955-0.566,3.943-3.676,3.944-8.602C1161.479,738.211,1161.483,725.862,1161.487,713.514z"/>
				<path fill="#FFFFFF" d="M1194.739,713.569c-0.003-5.036-1.481-8.155-3.94-8.598c-1.312-0.186-2.624-0.371-3.936-0.556
					c-0.001-2.035-0.001-4.069-0.002-6.103c9.878,0.039,19.756,0.122,29.634,0.249c0.002,2.044,0.004,4.088,0.006,6.133
					c-1.311,0.16-2.623,0.322-3.935,0.484c-2.46,0.398-3.932,3.496-3.928,8.542c0.01,11.456,0.02,22.911,0.03,34.367
					c0.004,6.127,1.732,9.579,10.72,9.835c8.617,0.26,11.691-2.092,11.684-7.285c-0.003-1.981-0.005-3.961-0.008-5.942
					c2.584,0.083,5.168,0.173,7.752,0.267c0.011,7.402,0.022,14.805,0.034,22.207c-17.314-0.778-34.639-1.245-51.966-1.4
					c-0.001-2.035-0.001-4.069-0.002-6.103c1.313-0.167,2.627-0.333,3.941-0.497c2.955-0.501,3.94-3.594,3.936-8.524
					C1194.752,738.286,1194.745,725.928,1194.739,713.569z"/>
				<path fill="#FFFFFF" d="M1237.751,698.904c17.62,0.34,35.235,0.822,52.842,1.444c0.02,9.308,0.039,18.616,0.059,27.924
					c-2.416-0.129-4.832-0.255-7.249-0.376c-0.004-2.067-0.009-4.134-0.013-6.201c-0.014-6.537-1.872-13.811-7.155-13.993
					c-4.669-0.161-5.149,6.31-5.14,10.486c0.023,11.728,0.047,23.456,0.07,35.184c0.011,5.058,1,8.305,4.198,9.068
					c1.271,0.268,2.541,0.538,3.812,0.81c0.004,2.099,0.009,4.197,0.013,6.296c-9.917-0.723-19.839-1.344-29.765-1.863
					c-0.004-2.067-0.007-4.134-0.01-6.201c1.312-0.116,2.624-0.231,3.936-0.345c3.074-0.383,4.053-3.494,4.043-8.518
					c-0.021-11.646-0.042-23.292-0.063-34.937c-0.008-4.148-0.51-10.609-5.181-10.734c-5.286-0.138-7.117,6.877-7.108,13.281
					c0.003,2.027,0.007,4.054,0.01,6.081c-2.419-0.079-4.838-0.154-7.257-0.224C1237.778,717.025,1237.764,707.965,1237.751,698.904
					z"/>
				<path fill="#FFFFFF" d="M1316.165,739.077c0.013,6.194,0.026,12.387,0.039,18.581c0.009,4.532,1.858,7.977,8.115,8.594
					c8.588,0.865,10.66-4.769,10.647-11.914c-0.004-1.879-0.007-3.758-0.011-5.638c2.575,0.23,5.15,0.466,7.725,0.707
					c0.016,8.728,0.031,17.456,0.046,26.183c-16.054-1.885-32.131-3.5-48.225-4.845c-0.005-2.119-0.009-4.238-0.013-6.357
					c1.31-0.082,2.62-0.163,3.93-0.242c2.947-0.204,3.922-3.484,3.911-8.645c-0.028-12.932-0.055-25.865-0.083-38.797
					c-0.011-5.272-1.492-8.59-3.949-9.14c-1.31-0.242-2.621-0.483-3.932-0.722c-0.004-2.119-0.009-4.238-0.013-6.357
					c16.09,0.587,32.173,1.292,48.246,2.115c0.015,8.419,0.03,16.838,0.044,25.258c-2.575-0.191-5.151-0.377-7.727-0.559
					c-0.003-1.611-0.006-3.222-0.009-4.833c-0.016-8.642-4.932-13.398-10.702-13.685c-6.26-0.316-8.095,2.318-8.085,7.526
					c0.01,4.909,0.021,9.819,0.031,14.728c4.051,0.268,8.101,0.548,12.15,0.84c0.005,2.708,0.011,5.415,0.016,8.123
					C1324.266,739.677,1320.216,739.37,1316.165,739.077z"/>
				<path fill="#FFFFFF" d="M1399.222,755.476c0.118,15.577-9.883,27.088-25.288,24.838c-15.285-2.2-25.598-13.883-25.502-29.662
					c0.029-7.411,0.057-14.824,0.086-22.237c-0.025-13.684,10.016-25.748,25.34-24.904c15.326,0.842,25.244,13.938,25.363,29.369
					C1399.222,740.413,1399.222,747.945,1399.222,755.476z M1365.219,755.328c0.01,8.641,1.368,16.364,8.707,17.342
					c7.215,0.975,8.674-7.134,8.67-15.342c-0.007-10.689-0.015-21.378-0.022-32.067c-0.004-6.755-1.479-13.504-8.709-13.985
					c-7.354-0.485-8.694,5.939-8.686,12.562C1365.193,734.334,1365.206,744.831,1365.219,755.328z"/>
			</g>
		</g>
	</g>
	
		<rect x="1034.491" y="654.574" transform="matrix(-0.7071 0.7071 -0.7071 -0.7071 2251.7336 395.4152)" fill="#C14734" width="18.966" height="18.966"/>
	
		<rect x="1294.593" y="654.574" transform="matrix(-0.7071 0.7071 -0.7071 -0.7071 2695.7566 211.4949)" fill="#C14734" width="18.966" height="18.966"/>
</g>
<g>
</g>
<g>
</g>
<g>
</g>
<g>
</g>
<g>
</g>
<g>
</g>
<g>
</g>
<g>
</g>
<g>
</g>
<g>
</g>
<g>
</g>
<g>
</g>
<g>
</g>
<g>
</g>
<g>
</g>
</svg>
