<?xml version="1.0" encoding="UTF-8"?>
<!-- Generator: Adobe Illustrator 30.3.0, SVG Export Plug-In . SVG Version: 9.03 Build 0)  -->
<svg version="1.1" id="Layer_1"
	 xmlns="http://www.w3.org/2000/svg" xmlns:xlink="http://www.w3.org/1999/xlink"
	 x="0px" y="0px" viewBox="0 0 357.767 86.26" enable-background="new 0 0 357.767 86.26" xml:space="preserve">
<path id="Horizontal_Mukilteo_Black" fill="#FFFFFF" d="M58.997,71.552v-5.247l2.599,2.985l-2.599-6.71v-0.135l5.989,4.087
	l-5.562-8.12l8.545,4.926l-6.766-7.416l9.287,3.846l-9.144-7.26l11.155,3.38l-11.266-6.323l12.73,2.205l-12.022-4.73l12.911,0.451
	l-12.554-3.049l12.853-1.311l-12.853-1.31l12.554-3.049l-12.911,0.451l12.022-4.73l-12.73,2.205L72.5,30.374l-12.311,3.918
	l10.301-7.799l-11.663,5.558l9.143-9.128l-10.798,7.094l7.815-10.288l-9.731,8.499l6.341-11.257l-8.483,9.745L57.862,14.7
	l-7.077,10.808l3.069-12.55l-5.539,11.671l1.331-12.851l-3.899,12.318l-0.431-12.912l-2.082,12.13
	c-0.033-0.445-0.067-0.81-0.098-0.924v-0.039c0,0-0.004,0.015-0.006,0.02l-0.004-0.017l-0.002,0.036
	c-0.031,0.113-0.065,0.478-0.098,0.923l-2.082-12.13l-0.431,12.912L36.616,11.78l1.331,12.851l-5.54-11.671l3.069,12.55L28.399,14.7
	l4.749,12.015l-8.483-9.745l6.341,11.257l-9.731-8.499l7.815,10.288l-10.798-7.094l9.143,9.128l-11.663-5.558l10.3,7.799
	l-12.311-3.918l11.266,6.323l-12.73-2.205l12.022,4.73L11.409,38.77l12.554,3.049l-12.853,1.31l12.853,1.311L11.409,47.49
	l12.938-0.391l-12.049,4.67l12.405-1.895l-10.942,6.014l11.013-3.168l-9.002,7.047l9.429-3.846l-6.909,7.416l8.403-4.855
	l-5.42,8.049l5.847-3.993l-2.457,6.751l2.599-2.985v5.247c-9.954-5.58-16.706-16.22-16.706-28.421
	c0-17.961,14.612-32.573,32.573-32.573S75.703,25.17,75.703,43.131C75.703,55.331,68.951,65.972,58.997,71.552z M43.131,0
	C19.31,0,0,19.31,0,43.131C0,61.343,11.304,76.884,27.264,83.21v-8.934C15.929,68.489,8.152,56.73,8.152,43.131
	c0-19.318,15.661-34.979,34.979-34.979s34.979,15.66,34.979,34.979c0,13.6-7.778,25.359-19.112,31.146v8.933
	c15.961-6.326,27.264-21.867,27.264-40.079C86.261,19.31,66.951,0,43.131,0z M58.91,56.785l-0.281,0.304l-2.847,3.067v0.675v23.565
	c-3.98,1.211-8.202,1.864-12.578,1.864c-0.025,0-0.05,0-0.074,0c-0.025,0-0.049,0-0.074,0c-4.376,0-8.599-0.653-12.578-1.864V60.831
	v-0.675l-2.847-3.067l-0.285-0.308l2.571-0.727l4.423,4.767v-2.246l-2.487-3.069l3.136-0.889l3.438,5.52v-2.69l-1.35-3.029h4.89
	l0.381,3.656l0.013,0.029l0.746,1.796l0.008-0.017l0.007,0.015l0.758-1.795l0.013-0.029l0.381-3.656h4.89l-1.35,3.075v2.644
	l3.438-5.52l3.136,0.889l-2.487,3.069v2.246l4.423-4.767L58.91,56.785z M46.947,73.348h-3.81h-0.012h-3.81v5.112h3.81h0.012h3.81
	V73.348z M46.947,66.134h-3.81h-0.012h-3.81v5.035h3.81h0.012h3.81V66.134z M35.41,52.371h0.031h15.361h0.031l0.03,0.009
	l9.095,2.588v-8.522l-8.729-2.306l-0.929-0.245l-0.776,0.002l-4.177,0.014v-2.434c0,0-0.005-0.024-0.008-0.037
	c0.003-0.308-0.059-0.872-0.508-1.286c-0.299-0.276-0.788-0.369-1.116-0.398l-0.001-0.004h-0.578h-0.012h-0.578l-0.001,0.004
	c-0.327,0.03-0.816,0.122-1.115,0.398c-0.45,0.414-0.511,0.978-0.508,1.286c-0.003,0.012-0.008,0.024-0.008,0.024v2.447
	l-4.177-0.014v-7.491h6.387h0.006h0.001h0.006h6.387v0.001l1.704-0.001h0.012l1.482-1.376c0,0-6.581-2.205-7.76-3.145
	c-0.148-0.118-0.263-0.268-0.355-0.427c0.336-0.058,0.546-0.136,0.546-0.223c0-0.103-0.298-0.194-0.756-0.254
	c-0.069-0.21-0.113-0.409-0.147-0.559c0.361-0.074,0.594-0.184,0.594-0.307c0-0.141-0.301-0.266-0.759-0.339
	c-0.028-0.111-0.055-0.224-0.081-0.332c0.43-0.284,0.716-0.771,0.716-1.325c0-0.791-0.58-1.442-1.337-1.563v-0.627
	c0,0-0.07-1.555-0.148-2.613c-0.033-0.445-0.067-0.81-0.098-0.924v-0.039c0,0-0.004,0.015-0.006,0.02l-0.004-0.017l-0.002,0.036
	c-0.031,0.113-0.065,0.478-0.098,0.923c-0.078,1.059-0.147,2.614-0.147,2.614v0.627c-0.757,0.121-1.337,0.772-1.337,1.563
	c0,0.554,0.285,1.041,0.716,1.325c-0.026,0.108-0.054,0.221-0.082,0.332c-0.457,0.073-0.759,0.198-0.759,0.339
	c0,0.123,0.233,0.233,0.594,0.307c-0.034,0.15-0.078,0.348-0.147,0.559c-0.457,0.06-0.756,0.151-0.756,0.254
	c0,0.086,0.21,0.164,0.546,0.223c-0.092,0.159-0.207,0.309-0.355,0.427c-1.179,0.94-7.76,3.145-7.76,3.145l1.482,1.376h0.012v7.734
	l-8.729,2.306v8.517l9.076-2.582L35.41,52.371z M129.737,64.622l1.975,0.248v2.83H117.39v-2.83l1.358-0.248
	c1.543-0.297,2.037-1.687,2.037-3.969V43.481h-0.123L114.798,67.7h-4.012l-5.926-24.219h-0.124v17.172
	c0,2.282,0.494,3.672,2.037,3.969l1.359,0.248v2.83H96.834v-2.83l1.975-0.248c1.481-0.248,1.975-1.687,1.975-3.969V43.481
	c0-2.33-0.741-3.772-1.975-3.969l-1.975-0.248v-2.83h13.828l3.827,15.235l3.642-15.235h13.519v2.83l-1.975,0.248
	c-1.234,0.197-1.975,1.639-1.975,3.969v17.172C127.699,62.935,128.193,64.374,129.737,64.622z M156.718,39.264l1.913,0.248
	c1.728,0.197,2.099,2.085,2.099,3.969v13.5c0,6.253-2.284,7.841-5.494,7.841c-5,0-5.741-2.978-5.741-10.769V43.481
	c0-2.33,0.74-3.772,1.975-3.969l1.975-0.248v-2.83h-14.877v2.83l1.975,0.248c1.234,0.197,1.975,1.639,1.975,3.969v11.762
	c0,8.685,2.531,12.756,12.285,12.756c6.358,0,9.816-2.531,9.816-11.861V43.481c0-1.884,0.37-3.772,2.037-3.969l1.975-0.248v-2.83
	h-11.914V39.264z M200.675,60.653l-7.531-10.076l7.717-7.94c1.728-1.786,2.963-3.027,3.827-3.125l2.037-0.248v-2.83h-14.877v2.83
	l1.42,0.149c0.803,0.099,1.605,0.398,1.605,0.693c0,0.248-0.247,0.595-0.494,0.795L186.6,48.99
	c-0.185,0.248-0.555,0.496-0.864,0.496v-6.005c0-2.33,0.741-3.772,1.975-3.969l1.975-0.248v-2.83H174.81v2.83l1.975,0.248
	c1.234,0.197,1.975,1.639,1.975,3.969v17.172c0,2.282-0.494,3.721-1.975,3.969l-1.975,0.248v2.83h14.939v-2.83l-1.975-0.248
	c-1.543-0.248-2.037-1.687-2.037-3.969v-2.482l2.654-2.779l4.753,6.302c0.555,0.745,0.926,1.49,0.926,1.986
	c0,0.547-0.371,0.942-0.864,1.043l-1.359,0.147v2.83h15.803v-2.83l-2.222-0.248C203.823,64.424,202.219,62.738,200.675,60.653z
	 M225.063,60.653V43.481c0-2.33,0.74-3.772,1.975-3.969l1.975-0.248v-2.83h-14.877v2.83l1.975,0.248
	c1.234,0.197,1.975,1.639,1.975,3.969v17.172c0,2.282-0.494,3.721-1.975,3.969l-1.975,0.248v2.83h14.939v-2.83l-1.975-0.248
	C225.557,64.374,225.063,62.935,225.063,60.653z M258.647,60.256c0,2.383-1.543,3.523-5.864,3.523c-4.507,0-5.371-1.588-5.371-4.417
	v-15.88c0-2.33,0.741-3.772,1.975-3.969l1.976-0.248v-2.83h-14.878v2.83l1.975,0.248c1.234,0.197,1.976,1.639,1.976,3.969v17.172
	c0,2.282-0.494,3.721-1.976,3.969l-1.975,0.248v2.83h26.051V57.528h-3.889V60.256z M266.304,48.89h3.642v-2.778
	c0-2.928,0.926-6.155,3.58-6.155c2.346,0,2.593,2.928,2.593,4.815v15.881c0,2.282-0.494,3.721-2.037,3.969l-1.975,0.248v2.83h14.939
	v-2.83l-1.914-0.248c-1.605-0.248-2.099-1.687-2.099-3.969V44.772c0-1.887,0.247-4.815,2.593-4.815c2.654,0,3.58,3.227,3.58,6.155
	v2.778h3.642V36.435h-26.545V48.89z M299.847,39.264l1.975,0.248c1.234,0.197,1.975,1.639,1.975,3.969v17.172
	c0,2.282-0.494,3.771-1.975,3.969l-1.975,0.248v2.83h24.26V56.484h-3.889v2.432c0,3.077-1.049,5.607-5.371,5.607
	c-3.148,0-4.074-1.439-4.074-3.424v-8.138h6.111v-3.524h-6.111v-6.451c0-2.284,0.926-3.474,4.074-3.474
	c2.901,0,5.371,1.935,5.371,5.658v2.085h3.889v-10.82h-24.26V39.264z M357.767,47.303v9.131c0.062,6.253-5,11.565-12.779,11.565
	c-7.716,0-12.902-4.468-12.84-11.216l0.061-9.48c0-5.855,5.062-11.216,12.779-11.216C352.705,36.087,357.705,41.1,357.767,47.303z
	 M349.371,44.823c0-2.781-0.741-5.509-4.383-5.509c-3.704,0-4.383,2.728-4.383,5.509v13.199c0,3.625,0.679,6.8,4.383,6.8
	c3.642,0,4.383-3.423,4.383-6.8V44.823z M96.905,24.268c-0.27-0.856-0.404-1.79-0.404-2.807c0.001-1.017,0.135-1.957,0.405-2.817
	c0.27-0.86,0.652-1.602,1.149-2.224c0.495-0.622,1.097-1.106,1.804-1.451c0.707-0.345,1.491-0.518,2.352-0.518
	c0.889,0,1.669,0.143,2.34,0.424c0.671,0.282,1.218,0.686,1.64,1.214l-1.509,1.583c-0.598-0.74-1.371-1.111-2.319-1.111
	c-0.525,0-0.984,0.128-1.378,0.386c-0.393,0.257-0.722,0.607-0.984,1.046c-0.262,0.441-0.459,0.958-0.59,1.554
	c-0.131,0.598-0.197,1.234-0.198,1.914c0,0.665,0.066,1.297,0.197,1.894c0.131,0.595,0.328,1.113,0.59,1.554
	c0.263,0.438,0.594,0.788,0.995,1.046c0.401,0.258,0.871,0.385,1.411,0.385c0.51,0,0.952-0.113,1.324-0.34
	c0.372-0.226,0.681-0.501,0.929-0.829l1.51,1.525c-0.408,0.528-0.93,0.957-1.565,1.282c-0.634,0.328-1.433,0.49-2.395,0.49
	c-0.875,0-1.666-0.176-2.373-0.525c-0.707-0.352-1.306-0.839-1.794-1.461C97.554,25.861,97.175,25.12,96.905,24.268z M112.623,14.79
	h-2.625l-0.001,13.341h2.625L112.623,14.79z M118.704,28.131h2.581l0.001-11.421h2.909V14.79h-8.4v1.921h2.91L118.704,28.131z
	 M131.763,20.706l-0.066,0.039l-2.319-5.955h-2.844l3.871,8.234v5.107h2.581v-5.107l3.916-8.234h-2.778L131.763,20.706z
	 M146.166,24.313c-0.256-0.86-0.383-1.817-0.383-2.872c0.001-1.055,0.124-2.01,0.372-2.866c0.248-0.853,0.613-1.588,1.094-2.202
	c0.481-0.617,1.068-1.092,1.761-1.424c0.693-0.332,1.477-0.498,2.352-0.498c0.86,0,1.637,0.166,2.33,0.498
	c0.692,0.333,1.28,0.807,1.761,1.424c0.481,0.615,0.849,1.35,1.104,2.202c0.255,0.856,0.383,1.81,0.382,2.866
	c0,1.055-0.128,2.012-0.383,2.872c-0.256,0.86-0.624,1.601-1.104,2.215c-0.481,0.617-1.069,1.095-1.761,1.432
	c-0.693,0.339-1.469,0.508-2.33,0.508c-0.875,0-1.656-0.169-2.341-0.508c-0.686-0.337-1.269-0.815-1.75-1.432
	C146.79,25.914,146.421,25.173,146.166,24.313z M148.496,21.441c0,0.677,0.059,1.316,0.175,1.914
	c0.116,0.595,0.295,1.113,0.536,1.554c0.241,0.438,0.539,0.786,0.897,1.036c0.357,0.251,0.777,0.376,1.258,0.376
	c0.481,0,0.9-0.125,1.257-0.376c0.357-0.25,0.657-0.598,0.897-1.036c0.241-0.441,0.419-0.959,0.536-1.554
	c0.116-0.598,0.175-1.236,0.175-1.914c0.001-0.679-0.061-1.316-0.185-1.914c-0.124-0.595-0.307-1.111-0.547-1.545
	c-0.241-0.434-0.54-0.776-0.897-1.027c-0.357-0.25-0.769-0.376-1.236-0.376c-0.481,0-0.901,0.126-1.258,0.376
	c-0.358,0.251-0.656,0.593-0.897,1.027c-0.24,0.434-0.419,0.95-0.535,1.545C148.555,20.125,148.496,20.762,148.496,21.441z
	 M162.802,22.402h3.959l0.001-1.923h-3.982v-3.656h4.309V14.79h-6.934l-0.001,13.341h2.647V22.402z"/>
<g>
</g>
<g>
</g>
<g>
</g>
<g>
</g>
<g>
</g>
<g>
</g>
</svg>
